<svg width="402" height="160" viewBox="0 0 402 160" fill="none" xmlns="http://www.w3.org/2000/svg">
<g filter="url(#filter0_d)">
<path d="M55.2709 61.208L52.8604 43.3701L40.3159 45.0653L37.6689 57.444L55.2709 61.208ZM65.9269 59.768L83.5335 63.5107L88.8487 38.5069L63.5164 41.9301L65.9269 59.768ZM60.8149 83.816L43.2083 80.0733L38.172 103.765L62.3097 101.754L60.8149 83.816ZM67.1509 80.792L54.9152 67.5902L54.8338 67.6656L54.7534 67.742L67.1509 80.792ZM71.7589 74.024L55.1086 67.1855L55.1086 67.1855L71.7589 74.024ZM71.1829 59.048L57.2354 70.4263L57.2354 70.4263L71.1829 59.048ZM50.7349 60.92L38.4942 47.7229L38.4461 47.7675L38.3984 47.8124L50.7349 60.92ZM46.3429 77.552L30.0316 85.1639L30.1345 85.3843L30.2432 85.6018L46.3429 77.552ZM46.8469 78.704V96.704H64.8469V78.704H46.8469ZM41.0149 77.12L29.0886 90.6019L29.3619 90.8437L29.6448 91.0742L41.0149 77.12ZM42.8869 62.792L29.2992 50.9863L29.2919 50.9948L29.2845 51.0032L42.8869 62.792ZM52.6069 55.736L60.0101 72.1431L60.0929 72.1058L60.1752 72.0676L52.6069 55.736ZM73.9189 54.944L65.7483 70.9827L65.7483 70.9827L73.9189 54.944ZM79.5349 60.128L63.8001 68.8696L63.9164 69.0789L64.0383 69.2851L79.5349 60.128ZM78.8149 76.328L63.2487 67.2896L63.1938 67.3841L63.1401 67.4793L78.8149 76.328ZM71.5429 83.672L80.7001 99.1687L80.7865 99.1176L80.8724 99.0656L71.5429 83.672ZM60.2389 86.48V68.48H45.6839L42.6376 82.7127L60.2389 86.48ZM55.8469 107V125H70.402L73.4483 110.767L55.8469 107ZM45.4789 107L27.8769 103.236L23.2229 125H45.4789V107ZM57.6815 79.0459L68.3375 77.6059L63.5164 41.9301L52.8604 43.3701L57.6815 79.0459ZM48.3203 56.0253L43.2083 80.0733L78.4215 87.5587L83.5335 63.5107L48.3203 56.0253ZM62.3097 101.754C69.2826 101.173 75.1115 98.0571 79.5484 93.842L54.7534 67.742C54.9864 67.5207 55.5154 67.081 56.3738 66.6713C57.2597 66.2485 58.2738 65.9654 59.3201 65.8782L62.3097 101.754ZM79.3867 93.9937C83.4255 90.2505 86.3964 85.7634 88.4093 80.8625L55.1086 67.1855C55.0008 67.4479 54.9212 67.5708 54.9002 67.6018C54.8816 67.629 54.8884 67.6151 54.9152 67.5902L79.3867 93.9937ZM88.4093 80.8625C90.2968 76.267 91.4149 71.3094 91.4149 66.104H55.4149C55.4149 66.1131 55.4149 66.1866 55.382 66.344C55.3482 66.5056 55.2738 66.7832 55.1086 67.1855L88.4093 80.8625ZM91.4149 66.104C91.4149 60.0349 89.7867 53.3773 85.1305 47.6697L57.2354 70.4263C56.4733 69.4922 55.9756 68.4956 55.6951 67.6087C55.4276 66.7632 55.4149 66.2049 55.4149 66.104H91.4149ZM85.1305 47.6697C79.3492 40.5829 71.3153 38.312 64.4869 38.312V74.312C64.1702 74.312 63.0716 74.2663 61.5845 73.6587C59.9872 73.006 58.4398 71.9027 57.2354 70.4263L85.1305 47.6697ZM64.4869 38.312C55.4788 38.312 46.0289 40.7341 38.4942 47.7229L62.9757 74.1171C62.8254 74.2565 62.6683 74.3696 62.5301 74.4503C62.3949 74.5292 62.33 74.5467 62.3758 74.5313C62.4823 74.4957 63.1061 74.312 64.4869 74.312V38.312ZM38.3984 47.8124C30.7118 55.0468 27.8389 64.5564 27.8389 73.808H63.8389C63.8389 72.8044 63.9881 72.5793 63.8897 72.8383C63.8396 72.97 63.744 73.176 63.5849 73.4156C63.4248 73.6565 63.2445 73.8648 63.0715 74.0276L38.3984 47.8124ZM27.8389 73.808C27.8389 75.7439 27.8731 80.5385 30.0316 85.1639L62.6542 69.9401C63.1513 71.0053 63.418 71.8942 63.5597 72.4474C63.7061 73.0191 63.7736 73.4485 63.804 73.6746C63.8607 74.0953 63.8389 74.1906 63.8389 73.808H27.8389ZM30.2432 85.6018C30.3629 85.8412 30.3294 85.7857 30.2301 85.5587C30.1902 85.4674 30.0197 85.0778 29.826 84.5243C29.7303 84.2511 29.5506 83.7166 29.3765 83.0201C29.287 82.6623 29.1693 82.144 29.0685 81.5107C28.9741 80.917 28.8469 79.9316 28.8469 78.704H64.8469C64.8469 76.4896 64.4273 74.7916 64.3016 74.2889C64.117 73.5504 63.9215 72.9649 63.8049 72.6317C63.5692 71.9582 63.3357 71.4126 63.2118 71.1293C62.9445 70.5183 62.659 69.9348 62.4426 69.5022L30.2432 85.6018ZM46.8469 60.704C46.7142 60.704 47.2308 60.6841 48.1629 60.9373C49.134 61.2011 50.7213 61.8101 52.3851 63.1658L29.6448 91.0742C35.5016 95.8464 42.2731 96.704 46.8469 96.704V60.704ZM52.9413 63.6381C57.1436 67.3555 57.1429 71.6484 57.1429 71.72H21.1429C21.1429 76.7836 22.3902 84.6765 29.0886 90.6019L52.9413 63.6381ZM57.1429 71.72C57.1429 72.6941 56.9314 73.5419 56.6784 74.1451C56.4458 74.6998 56.2698 74.8341 56.4893 74.5807L29.2845 51.0032C24.6597 56.3395 21.1429 63.3472 21.1429 71.72H57.1429ZM56.4746 74.5977C57.1294 73.8442 58.1736 72.9718 60.0101 72.1431L45.2037 39.3289C39.1683 42.0522 33.7325 45.8838 29.2992 50.9863L56.4746 74.5977ZM60.1752 72.0676C61.9842 71.2293 63.3498 71 64.4149 71V35C57.6081 35 51.1017 36.5947 45.0386 39.4044L60.1752 72.0676ZM64.4149 71C65.3011 71 65.8134 71.077 66.0278 71.1209C66.2319 71.1626 66.0949 71.1593 65.7483 70.9827L82.0896 38.9053C76.3237 35.9679 70.1537 35 64.4149 35V71ZM65.7483 70.9827C65.7261 70.9714 65.4328 70.8177 65.0219 70.4385C64.5958 70.0452 64.1582 69.5141 63.8001 68.8696L95.2698 51.3864C92.0719 45.6303 87.3149 41.5672 82.0896 38.9053L65.7483 70.9827ZM64.0383 69.2851C63.8304 68.9333 63.6551 68.5226 63.5408 68.0918C63.4281 67.667 63.4069 67.345 63.4069 67.184H99.4069C99.4069 61.5603 98.0123 56.0152 95.0316 50.9709L64.0383 69.2851ZM63.4069 67.184C63.4069 67.1302 63.4109 67.0713 63.419 67.0135C63.4271 66.9558 63.4368 66.9168 63.4413 66.901C63.4455 66.886 63.4406 66.9075 63.4146 66.9681C63.3882 67.0294 63.3376 67.1365 63.2487 67.2896L94.3811 85.3664C97.5347 79.9353 99.4069 73.7984 99.4069 67.184H63.4069ZM63.1401 67.4793C63.1046 67.5421 62.9681 67.8211 62.2135 68.2784L80.8724 99.0656C86.4538 95.6829 91.1652 91.0659 94.4898 85.1767L63.1401 67.4793ZM62.3858 68.1753C62.3177 68.2156 61.9072 68.48 60.5989 68.48V104.48C67.5467 104.48 74.4322 102.872 80.7001 99.1687L62.3858 68.1753ZM60.5989 68.48H60.2389V104.48H60.5989V68.48ZM42.6376 82.7127L38.2456 103.233L73.4483 110.767L77.8403 90.2473L42.6376 82.7127ZM55.8469 89H45.4789V125H55.8469V89ZM63.081 110.764L72.873 64.972L37.6689 57.444L27.8769 103.236L63.081 110.764ZM81.4964 105.272L68.5546 117.782L68.6606 117.892L68.7685 118L81.4964 105.272ZM79.9844 94.112L62.3814 90.3525L62.3569 90.467L62.3339 90.5819L79.9844 94.112ZM87.6884 58.04L85.2778 40.2021L72.73 41.8978L70.0854 54.2805L87.6884 58.04ZM98.3444 56.6L115.95 60.3493L121.276 35.3375L95.9339 38.7621L98.3444 56.6ZM90.0644 95.48L107.457 100.118L107.574 99.6763L107.67 99.2293L90.0644 95.48ZM90.4244 99.872L77.6965 112.6L78.4014 113.305L79.1799 113.928L90.4244 99.872ZM96.6164 98.72L109.082 111.705L109.214 111.578L109.344 111.448L96.6164 98.72ZM99.2084 94.112V76.112H85.583L81.8843 89.2257L99.2084 94.112ZM102.232 94.112L119.261 99.9458L127.426 76.112H102.232V94.112ZM95.3924 104.696L105.257 119.752L105.347 119.693L105.436 119.633L95.3924 104.696ZM87.1124 89.432C87.8451 89.432 89.0333 89.55 90.442 90.0918C91.8935 90.6501 93.1916 91.5113 94.2243 92.5441L68.7685 118C74.0385 123.27 80.7179 125.432 87.1124 125.432V89.432ZM94.4382 92.7616C95.8957 94.2694 96.6798 95.8624 97.0629 97.0515C97.246 97.6198 97.3303 98.0694 97.3697 98.3547C97.3896 98.4991 97.3991 98.6091 97.4037 98.6807C97.4084 98.7522 97.4084 98.7903 97.4084 98.792H61.4084C61.4084 104.297 62.7315 111.759 68.5546 117.782L94.4382 92.7616ZM97.4084 98.792C97.4084 99.1115 97.3856 99.1807 97.4176 98.9208C97.4473 98.6795 97.5106 98.263 97.6348 97.6421L62.3339 90.5819C61.8433 93.0349 61.4084 95.9024 61.4084 98.792H97.4084ZM97.5874 97.8715L105.291 61.7995L70.0854 54.2805L62.3814 90.3525L97.5874 97.8715ZM90.0989 75.8779L100.755 74.4379L95.9339 38.7621L85.2778 40.2021L90.0989 75.8779ZM80.7392 52.8507L72.4592 91.7307L107.67 99.2293L115.95 60.3493L80.7392 52.8507ZM72.6721 90.8421C72.0404 93.211 71.7764 95.5494 71.7764 97.784H107.776C107.776 98.3866 107.704 99.189 107.457 100.118L72.6721 90.8421ZM71.7764 97.784C71.7764 100.873 72.3919 107.295 77.6965 112.6L103.152 87.1441C107.593 91.5846 107.776 96.6149 107.776 97.784H71.7764ZM79.1799 113.928C84.4423 118.138 90.2409 118.448 92.7284 118.448V82.448C93.2158 82.448 94.2987 82.4846 95.726 82.8414C97.158 83.1994 99.3942 83.9966 101.669 85.8164L79.1799 113.928ZM92.7284 118.448C99.6501 118.448 105.226 115.407 109.082 111.705L84.1508 85.735C84.8008 85.111 85.8779 84.2589 87.4339 83.5674C89.0427 82.8524 90.8575 82.448 92.7284 82.448V118.448ZM109.344 111.448C113.023 107.769 115.292 103.396 116.532 98.9983L81.8843 89.2257C82.0686 88.5722 82.6099 87.2707 83.8885 85.9921L109.344 111.448ZM99.2084 112.112H102.232V76.112H99.2084V112.112ZM85.204 88.2782C84.9376 89.0558 84.693 89.6513 84.4877 90.0923C84.2817 90.5348 84.1344 90.7804 84.0726 90.876C83.9336 91.0911 84.2754 90.4803 85.3484 89.7588L105.436 119.633C112.97 114.568 116.953 106.682 119.261 99.9458L85.204 88.2782ZM85.5279 89.6397C85.2614 89.8143 85.2817 89.7577 85.5869 89.6569C85.9148 89.5485 86.4449 89.432 87.1124 89.432V125.432C94.047 125.432 100.182 123.078 105.257 119.752L85.5279 89.6397ZM100.98 104.624L88.0876 117.186L88.0876 117.186L100.98 104.624ZM100.332 84.68L83.4275 78.4955L83.4061 78.554L83.3851 78.6127L100.332 84.68ZM106.668 74.744L119.17 87.6932L119.174 87.6894L106.668 74.744ZM121.14 71.648L131.462 56.9018L131.462 56.9018L121.14 71.648ZM122.58 74.816H104.58L140.204 78.4739L122.58 74.816ZM123.372 71V53H108.724L105.747 67.3421L123.372 71ZM133.74 71L151.349 74.7291L155.951 53H133.74V71ZM128.556 95.48L145.948 100.118L146.068 99.6663L146.165 99.2091L128.556 95.48ZM134.676 99.008L120.673 87.6979L120.539 87.864L120.408 88.0332L134.676 99.008ZM137.052 94.112V76.112H123.474L119.744 89.167L137.052 94.112ZM140.076 94.112L157.104 99.9458L165.269 76.112H140.076V94.112ZM133.452 104.696L143.811 119.417L143.837 119.398L143.863 119.379L133.452 104.696ZM120.708 105.776L108.242 118.761L108.507 119.015L108.781 119.258L120.708 105.776ZM118.548 100.808L136.438 98.8202L131.207 51.7403L103.852 90.4136L118.548 100.808ZM113.868 105.632L124.33 120.279L124.368 120.252L124.407 120.224L113.868 105.632ZM116.028 98.792L128.482 111.788L128.488 111.782L128.493 111.777L116.028 98.792ZM118.476 94.112L136.057 97.9713L136.07 97.9115L136.083 97.8516L118.476 94.112ZM121.932 77.84L139.539 81.5796L139.932 79.7304V77.84H121.932ZM121.212 76.04L106.944 87.0148L107.159 87.2933L107.384 87.5633L121.212 76.04ZM113.796 78.488L128.572 88.7672L128.624 88.693L128.674 88.6182L113.796 78.488ZM110.196 86.552L127.543 91.3558L127.552 91.322L127.561 91.2881L110.196 86.552ZM109.908 99.44L97.1798 112.168L97.3991 112.387L97.626 112.599L109.908 99.44ZM107.82 89.432C108.538 89.432 109.638 89.563 110.894 90.0785C112.167 90.6012 113.172 91.3437 113.872 92.0624L88.0876 117.186C93.473 122.713 100.483 125.432 107.82 125.432V89.432ZM113.872 92.0624C115.255 93.4819 115.872 94.8958 116.113 95.6711C116.331 96.3689 116.244 96.5285 116.244 95.84H80.2437C80.2437 102.111 81.6247 110.553 88.0876 117.186L113.872 92.0624ZM116.244 95.84C116.244 94.662 116.472 92.9991 117.278 90.7473L83.3851 78.6127C81.4073 84.1369 80.2437 89.914 80.2437 95.84H116.244ZM117.236 90.8645C117.819 89.2712 118.506 88.3348 119.17 87.6932L94.165 61.7948C89.2615 66.5292 85.7246 72.2168 83.4275 78.4955L117.236 90.8645ZM119.174 87.6894C119.081 87.7796 118.721 88.084 118.099 88.3372C117.473 88.5922 116.962 88.64 116.748 88.64V52.64C108.127 52.64 100.301 55.8666 94.1611 61.7986L119.174 87.6894ZM116.748 88.64C116.734 88.64 116.604 88.6397 116.375 88.6174C116.149 88.5952 115.778 88.5467 115.295 88.4359C114.377 88.2252 112.689 87.7041 110.817 86.3942L131.462 56.9018C126.042 53.1077 120.15 52.64 116.748 52.64V88.64ZM110.817 86.3942C109.373 85.3829 107.675 83.764 106.385 81.3773C105.074 78.9512 104.58 76.4621 104.58 74.312H140.58C140.58 66.9208 136.885 60.6978 131.462 56.9018L110.817 86.3942ZM104.58 74.312V74.816H140.58V74.312H104.58ZM140.204 78.4739L140.996 74.6579L105.747 67.3421L104.955 71.1581L140.204 78.4739ZM123.372 89H133.74V53H123.372V89ZM116.13 67.2709L110.946 91.7509L146.165 99.2091L151.349 74.7291L116.13 67.2709ZM111.163 90.8421C110.532 93.2109 110.268 95.5494 110.268 97.784H146.268C146.268 98.3866 146.196 99.1891 145.948 100.118L111.163 90.8421ZM110.268 97.784C110.268 101.382 111.111 107.423 115.978 112.527C120.999 117.792 127.237 118.88 131.22 118.88V82.88C133.235 82.88 137.997 83.4515 142.033 87.6846C145.916 91.7575 146.268 96.2498 146.268 97.784H110.268ZM131.22 118.88C139.151 118.88 145.234 114.804 148.943 109.983L120.408 88.0332C121.161 87.0547 122.477 85.6907 124.519 84.5847C126.645 83.4329 128.978 82.88 131.22 82.88V118.88ZM148.679 110.318C151.592 106.711 153.314 102.716 154.359 99.057L119.744 89.167C119.638 89.5402 119.775 88.8094 120.673 87.6979L148.679 110.318ZM137.052 112.112H140.076V76.112H137.052V112.112ZM123.047 88.2782C122.474 89.9521 122.016 90.7995 121.83 91.0967C121.641 91.3977 121.953 90.7834 123.04 90.0128L143.863 119.379C151.065 114.272 154.868 106.473 157.104 99.9458L123.047 88.2782ZM123.093 89.9755C122.97 90.0622 123.144 89.9172 123.62 89.7513C124.122 89.5762 124.808 89.432 125.604 89.432V125.432C132.645 125.432 138.807 122.938 143.811 119.417L123.093 89.9755ZM125.604 89.432C126.231 89.432 127.307 89.5179 128.635 89.9669C130.01 90.4321 131.402 91.204 132.634 92.2941L108.781 119.258C113.979 123.856 120.161 125.432 125.604 125.432V89.432ZM133.173 92.791C135.839 95.3505 136.357 98.0935 136.438 98.8202L100.658 102.796C101.219 107.842 103.176 113.897 108.242 118.761L133.173 92.791ZM103.852 90.4136C103.457 90.9722 103.254 91.0937 103.329 91.0398L124.407 120.224C127.937 117.674 130.854 114.58 133.243 111.202L103.852 90.4136ZM103.405 90.9848C104.216 90.406 105.098 89.9868 105.961 89.7299C106.803 89.4792 107.46 89.432 107.82 89.432V125.432C113.381 125.432 119.183 123.955 124.33 120.279L103.405 90.9848ZM112.5 118.448C119.705 118.448 125.114 115.015 128.482 111.788L103.573 85.7962C104.637 84.7766 107.694 82.448 112.5 82.448V118.448ZM128.493 111.777C132.764 107.677 135.024 102.676 136.057 97.9713L100.894 90.2527C101.063 89.4838 101.691 87.603 103.562 85.807L128.493 111.777ZM136.083 97.8516L139.539 81.5796L104.324 74.1004L100.868 90.3724L136.083 97.8516ZM139.932 77.84C139.932 72.1982 137.649 67.6482 135.04 64.5167L107.384 87.5633C105.734 85.5838 103.932 82.2338 103.932 77.84H139.932ZM135.479 65.0652C130.666 58.8089 123.86 57.104 118.98 57.104V93.104C117.67 93.104 115.641 92.9054 113.333 91.9375C110.897 90.9161 108.659 89.2437 106.944 87.0148L135.479 65.0652ZM118.98 57.104C108.831 57.104 102.282 63.4145 98.9169 68.3578L128.674 88.6182C128.514 88.8536 127.738 89.9424 126.083 91.0228C124.25 92.2195 121.778 93.104 118.98 93.104V57.104ZM99.0194 68.2088C96.0836 72.429 94.1191 77.0889 92.8299 81.8159L127.561 91.2881C128 89.6791 128.436 88.963 128.572 88.7672L99.0194 68.2088ZM92.8485 81.7482C91.6915 85.9266 90.8997 90.356 90.8997 94.832H126.9C126.9 94.508 126.972 93.4174 127.543 91.3558L92.8485 81.7482ZM90.8997 94.832C90.8997 96.7252 91.019 99.1233 91.5675 101.631C92.0389 103.786 93.2915 108.28 97.1798 112.168L122.636 86.7121C124.342 88.4188 125.311 90.1369 125.841 91.2987C126.375 92.4685 126.622 93.4176 126.736 93.9375C126.948 94.9087 126.9 95.3388 126.9 94.832H90.8997ZM97.626 112.599C101.765 116.462 107.051 118.448 112.5 118.448V82.448C114.032 82.448 115.797 82.711 117.62 83.4199C119.45 84.1316 120.983 85.155 122.189 86.281L97.626 112.599ZM142.334 122.768L154.08 109.128L154.064 109.115L154.048 109.101L142.334 122.768ZM141.398 112.04L127.244 100.919L127.244 100.919L141.398 112.04ZM145.502 108.872L138.018 92.5015L138.018 92.5015L145.502 108.872ZM152.27 106.424L157.523 123.641L167.509 120.594L169.823 110.413L152.27 106.424ZM152.99 103.256L170.543 107.245L139.473 91.37L152.99 103.256ZM138.59 105.272L125.648 117.782L125.754 117.892L125.862 118L138.59 105.272ZM137.078 94.112L119.469 90.3817L119.448 90.4817L119.428 90.5819L137.078 94.112ZM141.974 71V53H127.388L124.365 67.2697L141.974 71ZM152.342 71L169.952 74.7291L174.553 53H152.342V71ZM147.158 95.48L164.621 99.8456L164.7 99.5287L164.768 99.2091L147.158 95.48ZM152.558 98.792L166.141 110.603L166.265 110.461L166.386 110.315L152.558 98.792ZM154.862 94.112L172.137 99.1682L172.33 98.5116L172.471 97.8423L154.862 94.112ZM159.758 71V53H145.172L142.149 67.2697L159.758 71ZM170.198 71L187.813 74.7051L192.378 53H170.198V71ZM161.414 112.76L143.8 109.055L143.796 109.072L143.792 109.089L161.414 112.76ZM156.302 122.336L145.732 107.766L145.663 107.816L145.595 107.867L156.302 122.336ZM149.102 117.224L135.649 105.265L135.489 105.445L135.334 105.63L149.102 117.224ZM150.902 112.976L168.484 116.835L168.513 116.7L168.541 116.564L150.902 112.976ZM151.766 108.728L169.405 112.316L175.651 81.6064L145.978 91.6841L151.766 108.728ZM145.862 111.752L134.386 97.8849L134.386 97.8849L145.862 111.752ZM144.638 117.8L156.801 104.531L156.488 104.244L156.161 103.972L144.638 117.8ZM148.31 107C149.2 107 150.283 107.154 151.422 107.58C152.558 108.004 153.45 108.586 154.08 109.128L130.589 136.408C135.545 140.675 141.692 143 148.31 143V107ZM154.048 109.101C155.019 109.933 156.07 111.18 156.831 112.854C157.587 114.517 157.814 116.07 157.814 117.224H121.814C121.814 124.616 124.861 131.499 130.62 136.435L154.048 109.101ZM157.814 117.224C157.814 118.171 157.529 120.644 155.552 123.161L127.244 100.919C123.155 106.124 121.814 112.053 121.814 117.224H157.814ZM155.552 123.161C154.694 124.253 153.7 124.916 152.986 125.243L138.018 92.5015C133.944 94.3641 130.214 97.1393 127.244 100.919L155.552 123.161ZM152.986 125.243C153.644 124.942 155.057 124.393 157.523 123.641L147.018 89.2074C143.819 90.1833 140.72 91.2664 138.018 92.5015L152.986 125.243ZM169.823 110.413L170.543 107.245L135.438 99.2668L134.718 102.435L169.823 110.413ZM139.473 91.37C139.632 91.1892 140.193 90.6245 141.23 90.1316C142.304 89.6209 143.377 89.432 144.206 89.432V125.432C153.28 125.432 160.98 121.428 166.508 115.142L139.473 91.37ZM144.206 89.432C144.939 89.432 146.127 89.55 147.536 90.0918C148.987 90.6501 150.285 91.5113 151.318 92.5441L125.862 118C131.132 123.27 137.812 125.432 144.206 125.432V89.432ZM151.532 92.7616C152.989 94.2694 153.774 95.8624 154.157 97.0515C154.34 97.6198 154.424 98.0694 154.463 98.3547C154.483 98.4991 154.493 98.6091 154.497 98.6807C154.502 98.7522 154.502 98.7903 154.502 98.792H118.502C118.502 104.297 119.825 111.759 125.648 117.782L151.532 92.7616ZM154.502 98.792C154.502 99.1115 154.479 99.1807 154.511 98.9208C154.541 98.6795 154.604 98.263 154.729 97.6421L119.428 90.5819C118.937 93.0349 118.502 95.9024 118.502 98.792H154.502ZM154.687 97.8423L159.583 74.7303L124.365 67.2697L119.469 90.3817L154.687 97.8423ZM141.974 89H152.342V53H141.974V89ZM134.733 67.2709L129.549 91.7509L164.768 99.2091L169.952 74.7291L134.733 67.2709ZM129.696 91.1144C129.177 93.189 128.942 95.2592 128.942 97.28H164.942C164.942 98.0528 164.851 98.923 164.621 99.8456L129.696 91.1144ZM128.942 97.28C128.942 99.8199 129.273 104.902 132.61 109.796C136.79 115.926 143.31 118.448 149.102 118.448V82.448C150.946 82.448 153.431 82.7924 156.063 84.0791C158.777 85.406 160.89 87.3681 162.354 89.5159C164.971 93.3541 164.942 96.8521 164.942 97.28H128.942ZM149.102 118.448C156.155 118.448 162.104 115.246 166.141 110.603L138.975 86.9808C139.875 85.9461 141.256 84.7308 143.196 83.8013C145.174 82.8533 147.226 82.448 149.102 82.448V118.448ZM166.386 110.315C169.393 106.707 171.107 102.688 172.137 99.1682L137.587 89.0558C137.54 89.2159 137.558 89.1058 137.705 88.8077C137.853 88.507 138.167 87.945 138.73 87.2687L166.386 110.315ZM172.471 97.8423L177.367 74.7303L142.149 67.2697L137.253 90.3817L172.471 97.8423ZM159.758 89H170.198V53H159.758V89ZM152.584 67.2949L143.8 109.055L179.029 116.465L187.813 74.7051L152.584 67.2949ZM143.792 109.089C143.563 110.19 143.382 110.423 143.537 110.133C143.721 109.79 144.355 108.765 145.732 107.766L166.872 136.906C174.501 131.371 177.65 123.081 179.036 116.431L143.792 109.089ZM145.595 107.867C145.822 107.699 146.235 107.45 146.812 107.258C147.393 107.064 147.923 107 148.31 107V143C155.174 143 161.576 140.826 167.009 136.805L145.595 107.867ZM146.654 136.592C154.632 136.592 160.046 132.172 162.871 128.818L135.334 105.63C136.622 104.1 140.404 100.592 146.654 100.592V136.592ZM162.555 129.183C166.375 124.886 167.817 119.872 168.484 116.835L133.321 109.117C133.274 109.33 133.313 109.062 133.555 108.491C133.782 107.954 134.381 106.691 135.649 105.265L162.555 129.183ZM168.541 116.564L169.405 112.316L134.127 105.14L133.263 109.388L168.541 116.564ZM145.978 91.6841C142.274 92.9421 138.075 94.8315 134.386 97.8849L157.338 125.619C157.077 125.835 156.871 125.977 156.748 126.056C156.624 126.136 156.565 126.165 156.588 126.153C156.611 126.141 156.699 126.097 156.864 126.029C157.029 125.96 157.256 125.873 157.555 125.772L145.978 91.6841ZM134.386 97.8849C128.817 102.494 125.774 109.088 125.774 116.216H161.774C161.774 117.646 161.487 119.463 160.601 121.358C159.712 123.259 158.486 124.669 157.338 125.619L134.386 97.8849ZM125.774 116.216C125.774 123.652 129.764 128.836 133.115 131.628L156.161 103.972C158.36 105.804 161.774 109.932 161.774 116.216H125.774ZM132.475 131.069C136.307 134.581 141.297 136.592 146.654 136.592V100.592C148.378 100.592 150.264 100.897 152.156 101.64C154.042 102.382 155.593 103.424 156.801 104.531L132.475 131.069ZM203.013 58.112L220.616 61.8711L227.686 28.7623L196.285 41.4167L203.013 58.112ZM195.525 64.088L180.507 54.1654L180.485 54.1977L180.464 54.2301L195.525 64.088ZM193.437 77.552L177.125 85.1639L177.228 85.3843L177.337 85.6018L193.437 77.552ZM193.941 78.704V96.704H211.941V78.704H193.941ZM188.109 77.12L176.182 90.6019L176.456 90.8437L176.739 91.0742L188.109 77.12ZM189.981 62.792L176.393 50.9863L176.386 50.9948L176.378 51.0032L189.981 62.792ZM199.701 55.736L207.104 72.1431L207.187 72.1058L207.269 72.0676L199.701 55.736ZM214.389 53.144L231.995 56.8866L236.271 36.7741L215.769 35.197L214.389 53.144ZM202.941 107V125H217.517L220.547 110.743L202.941 107ZM192.573 107L174.97 103.241L170.323 125H192.573V107ZM196.285 41.4167C189.954 43.9679 184.451 48.1959 180.507 54.1654L210.543 74.0106C210.401 74.2244 210.194 74.4571 209.957 74.6468C209.728 74.8291 209.614 74.8584 209.741 74.8073L196.285 41.4167ZM180.464 54.2301C176.438 60.3816 174.933 67.2325 174.933 73.808H210.933C210.933 73.2319 210.998 73.0426 210.973 73.1359C210.96 73.1837 210.928 73.2909 210.861 73.4411C210.795 73.5925 210.704 73.7652 210.585 73.9459L180.464 54.2301ZM174.933 73.808C174.933 75.7439 174.967 80.5385 177.125 85.1639L209.748 69.9401C210.245 71.0053 210.512 71.8942 210.653 72.4474C210.8 73.0191 210.867 73.4485 210.898 73.6746C210.954 74.0953 210.933 74.1906 210.933 73.808H174.933ZM177.337 85.6018C177.457 85.8412 177.423 85.7857 177.324 85.5587C177.284 85.4674 177.113 85.0778 176.92 84.5243C176.824 84.2511 176.644 83.7166 176.47 83.0201C176.381 82.6623 176.263 82.144 176.162 81.5107C176.068 80.917 175.941 79.9316 175.941 78.704H211.941C211.941 76.4896 211.521 74.7916 211.395 74.2889C211.211 73.5504 211.015 72.9649 210.899 72.6317C210.663 71.9582 210.429 71.4126 210.306 71.1293C210.038 70.5183 209.753 69.9348 209.536 69.5022L177.337 85.6018ZM193.941 60.704C193.808 60.704 194.325 60.6841 195.257 60.9373C196.228 61.2011 197.815 61.8101 199.479 63.1658L176.739 91.0742C182.595 95.8464 189.367 96.704 193.941 96.704V60.704ZM200.035 63.6381C204.237 67.3555 204.237 71.6484 204.237 71.72H168.237C168.237 76.7836 169.484 84.6765 176.182 90.6019L200.035 63.6381ZM204.237 71.72C204.237 72.6941 204.025 73.5419 203.772 74.1451C203.54 74.6998 203.364 74.8341 203.583 74.5807L176.378 51.0032C171.753 56.3395 168.237 63.3472 168.237 71.72H204.237ZM203.568 74.5977C204.223 73.8442 205.267 72.9718 207.104 72.1431L192.297 39.3289C186.262 42.0522 180.826 45.8838 176.393 50.9863L203.568 74.5977ZM207.269 72.0676C209.078 71.2293 210.444 71 211.509 71V35C204.702 35 198.195 36.5947 192.132 39.4044L207.269 72.0676ZM211.509 71C211.448 71 211.538 70.9987 211.834 71.0135C212.114 71.0275 212.5 71.0519 213.008 71.091L215.769 35.197C214.381 35.0902 212.877 35 211.509 35V71ZM196.782 49.4014L185.334 103.257L220.547 110.743L231.995 56.8866L196.782 49.4014ZM202.941 89H192.573V125H202.941V89ZM210.176 110.759L220.616 61.8711L185.41 54.3529L174.97 103.241L210.176 110.759ZM214.101 105.2L199.868 116.219L199.977 116.36L200.089 116.5L214.101 105.2ZM212.805 95.48L230.376 99.3847L230.393 99.3102L230.409 99.2355L212.805 95.48ZM217.413 73.88L235.017 77.6355L239.658 55.88H217.413V73.88ZM215.037 73.88L197.386 70.3499L193.08 91.88H215.037V73.88ZM215.613 71V53H200.856L197.962 67.4699L215.613 71ZM217.989 71V89H232.496L235.578 74.8237L217.989 71ZM220.149 61.064L217.738 43.2261L205.239 44.9152L202.56 57.2403L220.149 61.064ZM230.805 59.624L248.32 63.7724L254.358 38.2774L228.394 41.7861L230.805 59.624ZM230.085 62.864L247.547 67.2296L247.772 66.3288L247.904 65.4096L230.085 62.864ZM228.357 71L210.706 67.4699L206.4 89H228.357V71ZM232.677 71L250.327 74.5301L254.633 53H232.677V71ZM232.101 73.88V91.88H246.857L249.751 77.4101L232.101 73.88ZM227.781 73.88V55.88H213.216L210.177 70.1245L227.781 73.88ZM223.173 95.48L240.725 99.4692L240.752 99.3525L240.777 99.2355L223.173 95.48ZM227.205 100.376L244.221 106.244L256.686 70.0965L220.884 83.5221L227.205 100.376ZM223.821 105.992L234.535 120.456L234.535 120.456L223.821 105.992ZM219.573 89.432C220.133 89.432 221.466 89.5134 223.167 90.2072C224.985 90.9488 226.741 92.1998 228.112 93.9005L200.089 116.5C205.627 123.366 213.34 125.432 219.573 125.432V89.432ZM228.334 94.1809C230.272 96.6842 230.373 98.9617 230.373 99.296H194.373C194.373 104.526 195.626 110.74 199.868 116.219L228.334 94.1809ZM230.373 99.296C230.373 99.3657 230.369 99.4118 230.366 99.4308C230.364 99.4494 230.365 99.4349 230.376 99.3847L195.233 91.5753C194.678 94.0721 194.373 96.654 194.373 99.296H230.373ZM230.409 99.2355L235.017 77.6355L199.809 70.1245L195.201 91.7245L230.409 99.2355ZM217.413 55.88H215.037V91.88H217.413V55.88ZM232.687 77.4101L233.263 74.5301L197.962 67.4699L197.386 70.3499L232.687 77.4101ZM215.613 89H217.989V53H215.613V89ZM235.578 74.8237L237.738 64.8877L202.56 57.2403L200.4 67.1763L235.578 74.8237ZM222.559 78.9019L233.215 77.4619L228.394 41.7861L217.738 43.2261L222.559 78.9019ZM213.289 55.4756C212.966 56.8394 212.46 58.9553 212.266 60.3184L247.904 65.4096C247.863 65.698 247.825 65.9034 247.815 65.9589C247.801 66.0357 247.793 66.0745 247.796 66.0601C247.802 66.0288 247.825 65.9202 247.872 65.7067C247.966 65.2846 248.112 64.6505 248.32 63.7724L213.289 55.4756ZM212.622 58.4984C212.165 60.3273 211.508 63.4604 210.706 67.4699L246.007 74.5301C246.837 70.3796 247.332 68.0887 247.547 67.2296L212.622 58.4984ZM228.357 89H232.677V53H228.357V89ZM215.026 67.4699L214.45 70.3499L249.751 77.4101L250.327 74.5301L215.026 67.4699ZM232.101 55.88H227.781V91.88H232.101V55.88ZM210.177 70.1245L205.569 91.7245L240.777 99.2355L245.385 77.6355L210.177 70.1245ZM205.62 91.4908C205.266 93.0501 204.813 95.4034 204.813 98H240.813C240.813 98.7806 240.743 99.3022 240.722 99.4476C240.697 99.6228 240.686 99.6429 240.725 99.4692L205.62 91.4908ZM204.813 98C204.813 101.513 205.663 107.478 210.537 112.491C215.502 117.599 221.587 118.592 225.333 118.592V82.592C227.398 82.592 232.223 83.1531 236.349 87.3966C240.383 91.546 240.813 96.2146 240.813 98H204.813ZM225.333 118.592C226.503 118.592 229.91 118.586 233.525 117.23L220.884 83.5221C221.797 83.1797 222.569 82.9839 223.1 82.8701C223.645 82.7534 224.087 82.6911 224.385 82.6566C224.958 82.5905 225.311 82.592 225.333 82.592V118.592ZM210.188 94.5082C209.988 95.0891 209.954 95.0223 210.221 94.578C210.467 94.171 211.321 92.8505 213.107 91.528L234.535 120.456C240.307 116.18 242.923 110.008 244.221 106.244L210.188 94.5082ZM213.107 91.528C213.842 90.9834 214.813 90.4299 216.008 90.0248C217.212 89.6166 218.43 89.432 219.573 89.432V125.432C225.168 125.432 230.304 123.59 234.535 120.456L213.107 91.528ZM253.497 104.048L266.679 91.791L266.679 91.791L253.497 104.048ZM252.201 74.168L234.948 69.035L234.928 69.1006L234.909 69.1664L252.201 74.168ZM260.409 59.264L247.083 47.1635L247.076 47.1713L260.409 59.264ZM283.521 55.376L273.028 70.0017L273.028 70.0017L283.521 55.376ZM285.609 67.544L300.297 77.9483L300.396 77.8079L300.493 77.6656L285.609 67.544ZM277.689 67.4L269.639 51.3003L249.628 61.3056L263.686 78.7101L277.689 67.4ZM279.921 57.608L266.026 69.0507L266.221 69.2873L266.423 69.5172L279.921 57.608ZM269.337 61.64L284.313 71.6246L284.345 71.5771L284.376 71.5293L269.337 61.64ZM263.721 74.744L246.355 70.0079L246.335 70.0815L246.315 70.1553L263.721 74.744ZM263.505 98.36L248.413 108.17L248.413 108.17L263.505 98.36ZM278.121 99.368L286.425 115.338L286.425 115.338L278.121 99.368ZM284.312 94.04L291.49 77.5327L278.446 71.8617L269.912 83.24L284.312 94.04ZM285.969 94.76L302.699 101.399L309.127 85.2012L293.146 78.2527L285.969 94.76ZM280.641 102.32L292.355 115.987L292.355 115.987L280.641 102.32ZM273.081 106.784L278.864 123.83L279 123.784L279.135 123.735L273.081 106.784ZM265.449 90.152C264.183 90.152 263.896 89.9843 264.238 90.1017C264.432 90.1682 264.796 90.3165 265.255 90.6048C265.721 90.8981 266.215 91.2925 266.679 91.791L240.314 116.305C247.559 124.097 257.311 126.152 265.449 126.152V90.152ZM266.679 91.791C267.802 92.9996 268.025 93.9444 267.966 93.7339C267.939 93.6382 267.864 93.3321 267.797 92.7628C267.731 92.1961 267.681 91.4312 267.681 90.44H231.681C231.681 98.3851 233.129 108.578 240.314 116.305L266.679 91.791ZM267.681 90.44C267.681 87.3898 268.191 83.665 269.492 79.1696L234.909 69.1664C232.85 76.287 231.681 83.4102 231.681 90.44H267.681ZM269.453 79.301C270.48 75.8479 271.963 73.3177 273.741 71.3567L247.076 47.1713C241.366 53.4663 237.377 60.8721 234.948 69.035L269.453 79.301ZM273.734 71.3645C273.91 71.1708 274.018 71.0888 274.045 71.0684C274.07 71.0504 274.061 71.0595 274.033 71.0719C274.005 71.084 274.023 71.0713 274.118 71.0526C274.218 71.033 274.438 71 274.809 71V35C264.096 35 254.4 39.1056 247.083 47.1635L273.734 71.3645ZM274.809 71C275.855 71 274.734 71.2254 273.028 70.0017L294.013 40.7503C287.891 36.3586 280.962 35 274.809 35V71ZM273.028 70.0017C271.631 68.9995 270.402 67.5524 269.623 65.8427C268.896 64.2459 268.833 63.023 268.833 62.648H304.833C304.833 54.9057 301.914 46.4184 294.013 40.7503L273.028 70.0017ZM268.833 62.648C268.833 62.5648 268.819 60.2233 270.724 57.4224L300.493 77.6656C304.03 72.4647 304.833 66.8592 304.833 62.648H268.833ZM270.92 57.1397C272.337 55.1392 274.31 53.4877 276.617 52.4428C278.799 51.4547 280.688 51.272 281.793 51.272V87.272C287.882 87.272 295.335 84.9537 300.297 77.9483L270.92 57.1397ZM281.793 51.272C283.123 51.272 284.954 51.5211 286.941 52.4272C288.966 53.3513 290.561 54.69 291.691 56.0899L263.686 78.7101C268.402 84.5493 275.107 87.272 281.793 87.272V51.272ZM285.738 83.4997C291.344 80.6966 294.394 76.1363 295.972 73.0937L264.013 56.5223C264.247 56.0717 265.761 53.2393 269.639 51.3003L285.738 83.4997ZM295.972 73.0937C297.905 69.3663 299.001 65.1935 299.001 60.776H263.001C263.001 59.1425 263.424 57.6577 264.013 56.5223L295.972 73.0937ZM299.001 60.776C299.001 55.976 297.574 50.4094 293.418 45.6988L266.423 69.5172C263.707 66.4386 263.001 62.984 263.001 60.776H299.001ZM293.815 46.1653C288.394 39.5825 281.006 38.384 276.609 38.384V74.384C275.283 74.384 270.103 74.0015 266.026 69.0507L293.815 46.1653ZM276.609 38.384C264.871 38.384 257.729 46.53 254.297 51.7507L284.376 71.5293C284.774 70.9246 284.543 71.4795 283.427 72.2864C282.126 73.2268 279.755 74.384 276.609 74.384V38.384ZM254.36 51.6554C250.703 57.1401 248.152 63.4187 246.355 70.0079L281.086 79.4801C282.169 75.5093 283.362 73.0519 284.313 71.6246L254.36 51.6554ZM246.315 70.1553C244.573 76.7631 243.633 83.397 243.633 90.008H279.633C279.633 86.827 280.084 83.2849 281.126 79.3327L246.315 70.1553ZM243.633 90.008C243.633 95.2517 244.449 102.072 248.413 108.17L278.596 88.5502C279.387 89.7658 279.619 90.6922 279.665 90.8952C279.709 91.0948 279.633 90.8545 279.633 90.008H243.633ZM248.413 108.17C254.268 117.177 263.729 119.24 270.273 119.24V83.24C270.303 83.24 271.473 83.2308 273.18 83.9572C275.101 84.7745 277.13 86.2944 278.596 88.5502L248.413 108.17ZM270.273 119.24C275.855 119.24 281.339 117.983 286.425 115.338L269.816 83.3981C269.916 83.3461 270.048 83.2952 270.182 83.2632C270.313 83.232 270.356 83.24 270.273 83.24V119.24ZM286.425 115.338C291.372 112.765 295.473 109.16 298.713 104.84L269.912 83.24C269.847 83.3274 269.798 83.3834 269.769 83.4149C269.74 83.4462 269.726 83.4578 269.728 83.4558C269.731 83.4536 269.742 83.4439 269.762 83.4305C269.782 83.417 269.801 83.4059 269.816 83.3981L286.425 115.338ZM277.135 110.547L278.791 111.267L293.146 78.2527L291.49 77.5327L277.135 110.547ZM269.238 88.1208C269.059 88.5708 268.948 88.6344 268.926 88.6534L292.355 115.987C297.037 111.974 300.478 106.997 302.699 101.399L269.238 88.1208ZM268.926 88.6534C268.101 89.3604 267.473 89.6733 267.026 89.8326L279.135 123.735C284.064 121.975 288.476 119.312 292.355 115.987L268.926 88.6534ZM267.297 89.7384C266.14 90.1309 265.56 90.152 265.449 90.152V126.152C270.137 126.152 274.645 125.261 278.864 123.83L267.297 89.7384ZM286.19 104.552L274.27 118.04L274.27 118.04L286.19 104.552ZM285.11 85.04L302.165 90.7937L302.165 90.7937L285.11 85.04ZM291.59 74.744L304.107 87.6788L304.161 87.6271L304.214 87.575L291.59 74.744ZM312.038 81.944H294.038V94.9176L306.345 99.0203L312.038 81.944ZM318.302 80.792L324.919 97.5313L325.086 97.4653L325.252 97.3959L318.302 80.792ZM323.918 77.696L340.994 72.0039L333.287 48.8833L313.455 63.0488L323.918 77.696ZM324.566 79.64L337.71 91.9368L345.03 84.1124L341.642 73.9479L324.566 79.64ZM319.094 83.456L326.569 99.8304L326.647 99.7948L326.724 99.7584L319.094 83.456ZM311.822 85.616L308.915 67.8523L295.115 70.1104L293.891 84.0397L311.822 85.616ZM308.87 97.064L292.676 89.2052L292.676 89.2052L308.87 97.064ZM302.75 104.624L292.314 89.9578L292.314 89.9578L302.75 104.624ZM300.95 98.864L314.403 110.823L314.511 110.701L314.616 110.578L300.95 98.864ZM303.974 93.464L320.783 99.9017L320.805 99.843L320.827 99.7842L303.974 93.464ZM305.846 85.832L323.677 88.2915L325.943 71.8591L309.75 68.2606L305.846 85.832ZM306.134 78.92L313.095 95.5195L324.873 90.5801L324.101 77.8311L306.134 78.92ZM305.414 75.68L290.084 85.1137L290.255 85.3924L290.437 85.6646L305.414 75.68ZM298.79 78.2L313.91 87.9655L313.91 87.9655L298.79 78.2ZM295.19 86.48L312.507 91.3908L312.507 91.3908L295.19 86.48ZM294.614 99.656L279.501 109.435L279.638 109.646L279.781 109.854L294.614 99.656ZM294.614 89.288C294.355 89.288 294.69 89.2526 295.404 89.4843C296.175 89.7348 297.163 90.2276 298.109 91.0641L274.27 118.04C280.485 123.533 287.976 125.288 294.614 125.288V89.288ZM298.109 91.0641C299.594 92.3763 300.421 93.8585 300.813 94.9521C301.162 95.9283 301.094 96.374 301.094 95.912H265.094C265.094 102.734 266.912 111.538 274.27 118.04L298.109 91.0641ZM301.094 95.912C301.094 95.0755 301.276 93.4301 302.165 90.7937L268.054 79.2863C266.255 84.6179 265.094 90.2205 265.094 95.912H301.094ZM302.165 90.7937C302.606 89.488 303.228 88.53 304.107 87.6788L279.072 61.8092C274 66.718 270.301 72.624 268.054 79.2863L302.165 90.7937ZM304.214 87.575C304.142 87.6451 304.009 87.7616 303.813 87.8898C303.615 88.0191 303.4 88.1298 303.185 88.214C302.728 88.3927 302.535 88.352 302.822 88.352V52.352C294.006 52.352 285.596 55.3891 278.966 61.913L304.214 87.575ZM302.822 88.352C302.514 88.352 301.415 88.3061 299.93 87.6874C298.336 87.0229 296.828 85.9145 295.678 84.4765C293.575 81.8485 294.038 79.9552 294.038 81.872H330.038C330.038 76.1088 328.964 68.4555 323.789 61.9875C318.001 54.7525 309.866 52.352 302.822 52.352V88.352ZM294.038 81.872V81.944H330.038V81.872H294.038ZM306.345 99.0203C309.593 100.103 312.586 100.016 312.83 100.016V64.016C312.964 64.016 313.383 64.0182 313.973 64.0719C314.278 64.0997 314.736 64.1506 315.296 64.2494C315.825 64.3427 316.689 64.5207 317.73 64.8677L306.345 99.0203ZM312.83 100.016C317.391 100.016 321.532 98.8707 324.919 97.5313L311.684 64.0527C311.368 64.1774 311.301 64.1789 311.456 64.1441C311.61 64.1096 312.089 64.016 312.83 64.016V100.016ZM325.252 97.3959C328.453 96.0559 331.519 94.3867 334.38 92.3432L313.455 63.0488C312.956 63.4053 312.278 63.8001 311.351 64.1881L325.252 97.3959ZM306.841 83.3881L307.489 85.3321L341.642 73.9479L340.994 72.0039L306.841 83.3881ZM311.421 67.3432C311.659 67.088 311.829 66.9653 311.857 66.9456C311.882 66.9287 311.769 67.0102 311.463 67.1536L326.724 99.7584C330.608 97.9405 334.446 95.4262 337.71 91.9368L311.421 67.3432ZM311.618 67.0816C311.004 67.3619 310.136 67.6524 308.915 67.8523L314.728 103.38C318.787 102.716 322.767 101.566 326.569 99.8304L311.618 67.0816ZM293.891 84.0397C293.66 86.6678 293.127 88.2759 292.676 89.2052L325.063 104.923C327.78 99.3241 329.215 93.3002 329.752 87.1923L293.891 84.0397ZM292.676 89.2052C292.414 89.7455 292.222 90.0019 292.161 90.0764C292.109 90.1408 292.155 90.0706 292.314 89.9578L313.185 119.29C318.558 115.467 322.404 110.402 325.063 104.923L292.676 89.2052ZM292.314 89.9578C292.437 89.8705 292.751 89.6766 293.242 89.5157C293.742 89.3522 294.225 89.288 294.614 89.288V125.288C301.462 125.288 307.791 123.128 313.185 119.29L292.314 89.9578ZM297.494 118.808C305.921 118.808 311.57 114.009 314.403 110.823L287.496 86.9055C288.025 86.3106 291.37 82.808 297.494 82.808V118.808ZM314.616 110.578C317.501 107.213 319.432 103.43 320.783 99.9017L287.164 87.0263C287.08 87.2467 287.009 87.4116 286.955 87.5275C286.902 87.6435 286.87 87.7018 286.864 87.7111C286.859 87.7206 286.886 87.6721 286.951 87.5778C287.015 87.4833 287.124 87.3354 287.283 87.1498L314.616 110.578ZM320.827 99.7842C322.22 96.072 323.136 92.2121 323.677 88.2915L288.014 83.3725C287.787 85.0199 287.456 86.248 287.12 87.1438L320.827 99.7842ZM309.75 68.2606C313.187 69.0244 316.999 71.1909 319.529 75.1264C321.724 78.5417 321.902 81.6685 321.902 82.808H285.902C285.902 85.6755 286.403 90.1703 289.246 94.5936C292.424 99.5371 297.208 102.352 301.941 103.403L309.75 68.2606ZM321.902 82.808C321.902 84.0014 321.684 86.5109 320.07 89.3216C318.315 92.3794 315.685 94.4333 313.095 95.5195L299.172 62.3205C295.094 64.0307 291.348 67.0446 288.849 71.3984C286.491 75.505 285.902 79.6466 285.902 82.808H321.902ZM324.101 77.8311C324.018 76.4615 323.846 74.7865 323.453 73.0172C323.105 71.4497 322.33 68.6049 320.39 65.6954L290.437 85.6646C289.599 84.4075 289.109 83.2912 288.831 82.5535C288.546 81.7968 288.391 81.1913 288.31 80.8268C288.157 80.1374 288.154 79.7945 288.167 80.0089L324.101 77.8311ZM320.743 66.2462C316.078 58.6641 308.413 56.744 303.398 56.744V92.744C302.003 92.744 299.673 92.5261 297.042 91.3042C294.212 89.9905 291.765 87.8455 290.084 85.1137L320.743 66.2462ZM303.398 56.744C292.284 56.744 286.048 64.7512 283.669 68.4345L313.91 87.9655C313.897 87.9863 313.755 88.2046 313.461 88.5411C313.169 88.8742 312.647 89.4158 311.858 90.008C310.187 91.2606 307.27 92.744 303.398 92.744V56.744ZM283.669 68.4345C281.027 72.5248 279.169 76.9964 277.872 81.5692L312.507 91.3908C313.034 89.5316 313.576 88.4832 313.91 87.9655L283.669 68.4345ZM277.872 81.5692C276.66 85.8433 275.822 90.3871 275.822 94.976H311.822C311.822 94.6689 311.895 93.5487 312.507 91.3908L277.872 81.5692ZM275.822 94.976C275.822 96.7237 275.915 98.769 276.272 100.877C276.587 102.741 277.33 106.079 279.501 109.435L309.726 89.8775C310.615 91.2519 311.093 92.4603 311.343 93.2124C311.601 93.9863 311.717 94.5741 311.767 94.8705C311.86 95.419 311.822 95.5323 311.822 94.976H275.822ZM279.781 109.854C285.101 117.592 293.26 118.808 297.494 118.808V82.808C298.943 82.808 305.182 83.2563 309.446 89.4585L279.781 109.854ZM317.83 104.552L305.911 118.04L305.911 118.04L317.83 104.552ZM316.75 85.04L333.806 90.7937L333.806 90.7937L316.75 85.04ZM323.23 74.744L335.748 87.6788L335.801 87.6271L335.854 87.575L323.23 74.744ZM343.678 81.944H325.678V94.9176L337.986 99.0203L343.678 81.944ZM349.942 80.792L356.56 97.5313L356.727 97.4653L356.893 97.3959L349.942 80.792ZM355.558 77.696L372.634 72.0039L364.928 48.8833L345.096 63.0488L355.558 77.696ZM356.206 79.64L369.351 91.9368L376.671 84.1124L373.282 73.9479L356.206 79.64ZM350.734 83.456L358.209 99.8304L358.287 99.7948L358.365 99.7584L350.734 83.456ZM343.462 85.616L340.555 67.8523L326.756 70.1104L325.531 84.0397L343.462 85.616ZM340.51 97.064L324.316 89.2052L324.316 89.2052L340.51 97.064ZM334.39 104.624L323.955 89.9578L323.955 89.9578L334.39 104.624ZM332.59 98.864L346.044 110.823L346.151 110.701L346.257 110.578L332.59 98.864ZM335.614 93.464L352.424 99.9017L352.446 99.843L352.468 99.7842L335.614 93.464ZM337.486 85.832L355.317 88.2915L357.584 71.8591L341.391 68.2606L337.486 85.832ZM337.774 78.92L344.735 95.5195L356.514 90.5801L355.741 77.8311L337.774 78.92ZM337.054 75.68L321.724 85.1137L321.896 85.3924L322.077 85.6646L337.054 75.68ZM330.43 78.2L345.551 87.9655L345.551 87.9655L330.43 78.2ZM326.83 86.48L344.147 91.3908L344.147 91.3908L326.83 86.48ZM326.254 99.656L311.142 109.435L311.279 109.646L311.421 109.854L326.254 99.656ZM326.254 89.288C325.995 89.288 326.331 89.2526 327.044 89.4843C327.816 89.7348 328.803 90.2276 329.75 91.0641L305.911 118.04C312.126 123.533 319.616 125.288 326.254 125.288V89.288ZM329.75 91.0641C331.235 92.3763 332.061 93.8585 332.453 94.9521C332.803 95.9283 332.734 96.374 332.734 95.912H296.734C296.734 102.734 298.553 111.538 305.911 118.04L329.75 91.0641ZM332.734 95.912C332.734 95.0755 332.916 93.4301 333.806 90.7937L299.695 79.2863C297.896 84.6179 296.734 90.2205 296.734 95.912H332.734ZM333.806 90.7937C334.246 89.488 334.868 88.53 335.748 87.6788L310.713 61.8092C305.64 66.718 301.942 72.624 299.695 79.2863L333.806 90.7937ZM335.854 87.575C335.783 87.6451 335.65 87.7616 335.454 87.8898C335.256 88.0191 335.04 88.1298 334.825 88.214C334.368 88.3927 334.176 88.352 334.462 88.352V52.352C325.647 52.352 317.237 55.3891 310.606 61.913L335.854 87.575ZM334.462 88.352C334.154 88.352 333.056 88.3061 331.571 87.6874C329.976 87.0229 328.469 85.9145 327.319 84.4765C325.216 81.8485 325.678 79.9552 325.678 81.872H361.678C361.678 76.1088 360.604 68.4555 355.43 61.9875C349.642 54.7525 341.507 52.352 334.462 52.352V88.352ZM325.678 81.872V81.944H361.678V81.872H325.678ZM337.986 99.0203C341.233 100.103 344.226 100.016 344.47 100.016V64.016C344.604 64.016 345.023 64.0182 345.614 64.0719C345.919 64.0997 346.377 64.1506 346.937 64.2494C347.465 64.3427 348.329 64.5207 349.37 64.8677L337.986 99.0203ZM344.47 100.016C349.032 100.016 353.172 98.8707 356.56 97.5313L343.324 64.0527C343.009 64.1774 342.942 64.1789 343.097 64.1441C343.251 64.1096 343.729 64.016 344.47 64.016V100.016ZM356.893 97.3959C360.094 96.0559 363.16 94.3867 366.02 92.3432L345.096 63.0488C344.597 63.4053 343.918 63.8001 342.992 64.1881L356.893 97.3959ZM338.482 83.3881L339.13 85.3321L373.282 73.9479L372.634 72.0039L338.482 83.3881ZM343.061 67.3432C343.3 67.088 343.47 66.9653 343.498 66.9456C343.522 66.9287 343.41 67.0102 343.103 67.1536L358.365 99.7584C362.249 97.9405 366.087 95.4262 369.351 91.9368L343.061 67.3432ZM343.259 67.0816C342.645 67.3619 341.777 67.6524 340.555 67.8523L346.369 103.38C350.428 102.716 354.407 101.566 358.209 99.8304L343.259 67.0816ZM325.531 84.0397C325.3 86.6678 324.767 88.2759 324.316 89.2052L356.704 104.923C359.421 99.3241 360.856 93.3002 361.393 87.1923L325.531 84.0397ZM324.316 89.2052C324.054 89.7455 323.862 90.0019 323.802 90.0764C323.75 90.1408 323.796 90.0706 323.955 89.9578L344.826 119.29C350.199 115.467 354.045 110.402 356.704 104.923L324.316 89.2052ZM323.955 89.9578C324.077 89.8705 324.392 89.6766 324.883 89.5157C325.382 89.3522 325.866 89.288 326.254 89.288V125.288C333.102 125.288 339.432 123.128 344.826 119.29L323.955 89.9578ZM329.134 118.808C337.562 118.808 343.211 114.009 346.044 110.823L319.137 86.9055C319.666 86.3106 323.011 82.808 329.134 82.808V118.808ZM346.257 110.578C349.141 107.213 351.073 103.43 352.424 99.9017L318.805 87.0263C318.72 87.2467 318.649 87.4116 318.596 87.5275C318.542 87.6435 318.51 87.7018 318.505 87.7111C318.5 87.7206 318.526 87.6721 318.591 87.5778C318.656 87.4833 318.764 87.3354 318.924 87.1498L346.257 110.578ZM352.468 99.7842C353.86 96.072 354.777 92.2121 355.317 88.2915L319.655 83.3725C319.428 85.0199 319.096 86.248 318.76 87.1438L352.468 99.7842ZM341.391 68.2606C344.828 69.0244 348.639 71.1909 351.169 75.1264C353.365 78.5417 353.542 81.6685 353.542 82.808H317.542C317.542 85.6755 318.043 90.1703 320.887 94.5936C324.065 99.5371 328.848 102.352 333.581 103.403L341.391 68.2606ZM353.542 82.808C353.542 84.0014 353.324 86.5109 351.711 89.3216C349.955 92.3794 347.326 94.4333 344.735 95.5195L330.813 62.3205C326.735 64.0307 322.989 67.0446 320.49 71.3984C318.132 75.505 317.542 79.6466 317.542 82.808H353.542ZM355.741 77.8311C355.658 76.4615 355.487 74.7865 355.094 73.0172C354.745 71.4497 353.971 68.6049 352.031 65.6954L322.077 85.6646C321.239 84.4075 320.749 83.2912 320.471 82.5535C320.186 81.7968 320.032 81.1913 319.951 80.8268C319.798 80.1374 319.794 79.7945 319.807 80.0089L355.741 77.8311ZM352.384 66.2462C347.718 58.6641 340.054 56.744 335.038 56.744V92.744C333.644 92.744 331.314 92.5261 328.682 91.3042C325.853 89.9905 323.405 87.8455 321.724 85.1137L352.384 66.2462ZM335.038 56.744C323.924 56.744 317.688 64.7512 315.309 68.4345L345.551 87.9655C345.537 87.9863 345.396 88.2046 345.102 88.5411C344.81 88.8742 344.288 89.4158 343.498 90.008C341.828 91.2606 338.91 92.744 335.038 92.744V56.744ZM315.309 68.4345C312.668 72.5248 310.81 76.9964 309.513 81.5692L344.147 91.3908C344.675 89.5316 345.217 88.4832 345.551 87.9655L315.309 68.4345ZM309.513 81.5692C308.301 85.8433 307.462 90.3871 307.462 94.976H343.462C343.462 94.6689 343.535 93.5487 344.147 91.3908L309.513 81.5692ZM307.462 94.976C307.462 96.7237 307.556 98.769 307.913 100.877C308.228 102.741 308.971 106.079 311.142 109.435L341.366 89.8775C342.256 91.2519 342.733 92.4603 342.984 93.2124C343.242 93.9863 343.358 94.5741 343.408 94.8705C343.501 95.419 343.462 95.5323 343.462 94.976H307.462ZM311.421 109.854C316.741 117.592 324.9 118.808 329.134 118.808V82.808C330.584 82.808 336.823 83.2563 341.087 89.4585L311.421 109.854ZM348.751 105.272L335.606 117.569L335.811 117.788L336.023 118L348.751 105.272ZM347.239 93.968L329.636 90.2085L329.611 90.323L329.588 90.4379L347.239 93.968ZM354.943 57.896L352.532 40.0581L339.984 41.7538L337.34 54.1365L354.943 57.896ZM365.599 56.456L383.204 60.2053L388.531 35.1935L363.188 38.6181L365.599 56.456ZM357.319 95.336L374.711 99.9739L374.829 99.5323L374.924 99.0853L357.319 95.336ZM362.287 99.872L380.229 101.307L382.608 71.5796L355.196 83.3274L362.287 99.872ZM359.695 105.488L371.517 119.061L371.532 119.048L371.548 119.034L359.695 105.488ZM354.367 89.432C355.1 89.432 356.288 89.55 357.696 90.0918C359.148 90.6501 360.446 91.5113 361.479 92.5441L336.023 118C341.293 123.27 347.972 125.432 354.367 125.432V89.432ZM361.896 92.9752C364.757 96.0334 364.663 98.995 364.663 98.648H328.663C328.663 104.157 329.961 111.535 335.606 117.569L361.896 92.9752ZM364.663 98.648C364.663 98.9675 364.64 99.0367 364.672 98.7768C364.702 98.5355 364.765 98.119 364.889 97.4981L329.588 90.4379C329.098 92.8909 328.663 95.7584 328.663 98.648H364.663ZM364.842 97.7275L372.546 61.6555L337.34 54.1365L329.636 90.2085L364.842 97.7275ZM357.353 75.7339L368.009 74.2939L363.188 38.6181L352.532 40.0581L357.353 75.7339ZM347.994 52.7067L339.714 91.5867L374.924 99.0853L383.204 60.2053L347.994 52.7067ZM339.927 90.6981C339.374 92.7687 339.031 95.0266 339.031 97.424H375.031C375.031 98.4774 374.879 99.3433 374.711 99.9739L339.927 90.6981ZM339.031 97.424C339.031 101.273 340.045 107.44 345.199 112.468C350.271 117.416 356.334 118.304 359.983 118.304V82.304C361.663 82.304 366.251 82.7118 370.339 86.6999C374.509 90.7684 375.031 95.4951 375.031 97.424H339.031ZM359.983 118.304C362.848 118.304 366.096 117.823 369.377 116.417L355.196 83.3274C357.134 82.497 358.845 82.304 359.983 82.304V118.304ZM344.344 98.4366C344.389 97.8703 344.559 96.816 345.152 95.533C345.767 94.199 346.688 92.9508 347.842 91.9416L371.548 119.034C377.24 114.053 379.735 107.483 380.229 101.307L344.344 98.4366ZM347.873 91.9145C348.719 91.1778 349.802 90.5015 351.077 90.0364C352.34 89.5757 353.487 89.432 354.367 89.432V125.432C360.559 125.432 366.591 123.352 371.517 119.061L347.873 91.9145Z" fill="url(#paint1_linear)"/>
<path d="M55.2709 61.208L65.9269 59.768L60.8149 83.816C63.1189 83.624 65.2309 82.616 67.1509 80.792C69.1189 78.968 70.6549 76.712 71.7589 74.024C72.8629 71.336 73.4149 68.696 73.4149 66.104C73.4149 63.224 72.6709 60.872 71.1829 59.048C69.6949 57.224 67.4629 56.312 64.4869 56.312C58.6309 56.312 54.0469 57.848 50.7349 60.92C47.4709 63.992 45.8389 68.288 45.8389 73.808C45.8389 75.584 46.0069 76.832 46.3429 77.552C46.6789 78.224 46.8469 78.608 46.8469 78.704C44.2549 78.704 42.3109 78.176 41.0149 77.12C39.7669 76.016 39.1429 74.216 39.1429 71.72C39.1429 68.648 40.3909 65.672 42.8869 62.792C45.4309 59.864 48.6709 57.512 52.6069 55.736C56.5429 53.912 60.4789 53 64.4149 53C68.2069 53 71.3749 53.648 73.9189 54.944C76.4629 56.24 78.3349 57.968 79.5349 60.128C80.7829 62.24 81.4069 64.592 81.4069 67.184C81.4069 70.304 80.5429 73.352 78.8149 76.328C77.1349 79.304 74.7109 81.752 71.5429 83.672C68.3749 85.544 64.7269 86.48 60.5989 86.48H60.2389L55.8469 107H45.4789L55.2709 61.208ZM87.1124 107.432C84.8084 107.432 82.9364 106.712 81.4964 105.272C80.1044 103.832 79.4084 101.672 79.4084 98.792C79.4084 97.592 79.6004 96.032 79.9844 94.112L87.6884 58.04L98.3444 56.6L90.0644 95.48C89.8724 96.2 89.7764 96.968 89.7764 97.784C89.7764 98.744 89.9924 99.44 90.4244 99.872C90.9044 100.256 91.6724 100.448 92.7284 100.448C94.1204 100.448 95.4164 99.872 96.6164 98.72C97.8164 97.52 98.6804 95.984 99.2084 94.112H102.232C100.456 99.296 98.1764 102.824 95.3924 104.696C92.6084 106.52 89.8484 107.432 87.1124 107.432ZM107.82 107.432C105.084 107.432 102.804 106.496 100.98 104.624C99.1557 102.752 98.2437 99.824 98.2437 95.84C98.2437 92.288 98.9397 88.568 100.332 84.68C101.772 80.744 103.884 77.432 106.668 74.744C109.5 72.008 112.86 70.64 116.748 70.64C118.716 70.64 120.18 70.976 121.14 71.648C122.1 72.32 122.58 73.208 122.58 74.312V74.816L123.372 71H133.74L128.556 95.48C128.364 96.2 128.268 96.968 128.268 97.784C128.268 99.848 129.252 100.88 131.22 100.88C132.564 100.88 133.716 100.256 134.676 99.008C135.684 97.76 136.476 96.128 137.052 94.112H140.076C138.3 99.296 136.092 102.824 133.452 104.696C130.86 106.52 128.244 107.432 125.604 107.432C123.588 107.432 121.956 106.88 120.708 105.776C119.508 104.624 118.788 102.968 118.548 100.808C117.156 102.776 115.596 104.384 113.868 105.632C112.188 106.832 110.172 107.432 107.82 107.432ZM112.5 100.448C113.7 100.448 114.876 99.896 116.028 98.792C117.228 97.64 118.044 96.08 118.476 94.112L121.932 77.84C121.932 77.216 121.692 76.616 121.212 76.04C120.732 75.416 119.988 75.104 118.98 75.104C117.06 75.104 115.332 76.232 113.796 78.488C112.26 80.696 111.06 83.384 110.196 86.552C109.332 89.672 108.9 92.432 108.9 94.832C108.9 97.232 109.236 98.768 109.908 99.44C110.628 100.112 111.492 100.448 112.5 100.448ZM148.31 125C146.054 125 144.062 124.256 142.334 122.768C140.654 121.328 139.814 119.48 139.814 117.224C139.814 115.112 140.342 113.384 141.398 112.04C142.454 110.696 143.822 109.64 145.502 108.872C147.182 108.104 149.438 107.288 152.27 106.424L152.99 103.256C150.542 106.04 147.614 107.432 144.206 107.432C141.902 107.432 140.03 106.712 138.59 105.272C137.198 103.832 136.502 101.672 136.502 98.792C136.502 97.592 136.694 96.032 137.078 94.112L141.974 71H152.342L147.158 95.48C147.014 96.056 146.942 96.656 146.942 97.28C146.942 99.392 147.662 100.448 149.102 100.448C150.446 100.448 151.598 99.896 152.558 98.792C153.518 97.64 154.286 96.08 154.862 94.112L159.758 71H170.198L161.414 112.76C160.454 117.368 158.75 120.56 156.302 122.336C153.902 124.112 151.238 125 148.31 125ZM146.654 118.592C147.518 118.592 148.334 118.136 149.102 117.224C149.87 116.36 150.47 114.944 150.902 112.976L151.766 108.728C149.222 109.592 147.254 110.6 145.862 111.752C144.47 112.904 143.774 114.392 143.774 116.216C143.774 116.792 144.062 117.32 144.638 117.8C145.214 118.328 145.886 118.592 146.654 118.592ZM203.013 58.112C199.797 59.408 197.301 61.4 195.525 64.088C193.797 66.728 192.933 69.968 192.933 73.808C192.933 75.584 193.101 76.832 193.437 77.552C193.773 78.224 193.941 78.608 193.941 78.704C191.349 78.704 189.405 78.176 188.109 77.12C186.861 76.016 186.237 74.216 186.237 71.72C186.237 68.648 187.485 65.672 189.981 62.792C192.525 59.864 195.765 57.512 199.701 55.736C203.637 53.912 207.573 53 211.509 53C212.181 53 213.141 53.048 214.389 53.144L202.941 107H192.573L203.013 58.112ZM219.573 107.432C217.125 107.432 215.301 106.688 214.101 105.2C212.949 103.712 212.373 101.744 212.373 99.296C212.373 98.048 212.517 96.776 212.805 95.48L217.413 73.88H215.037L215.613 71H217.989L220.149 61.064L230.805 59.624C230.373 61.448 230.133 62.528 230.085 62.864C229.749 64.208 229.173 66.92 228.357 71H232.677L232.101 73.88H227.781L223.173 95.48C222.933 96.536 222.813 97.376 222.813 98C222.813 99.728 223.653 100.592 225.333 100.592C226.197 100.592 226.821 100.52 227.205 100.376C226.245 103.16 225.117 105.032 223.821 105.992C222.525 106.952 221.109 107.432 219.573 107.432ZM265.449 108.152C260.025 108.152 256.041 106.784 253.497 104.048C250.953 101.312 249.681 96.776 249.681 90.44C249.681 85.4 250.521 79.976 252.201 74.168C253.929 68.36 256.665 63.392 260.409 59.264C264.201 55.088 269.001 53 274.809 53C278.409 53 281.313 53.792 283.521 55.376C285.729 56.96 286.833 59.384 286.833 62.648C286.833 64.712 286.425 66.344 285.609 67.544C284.793 68.696 283.521 69.272 281.793 69.272C280.065 69.272 278.697 68.648 277.689 67.4C278.553 66.968 279.321 66.104 279.993 64.808C280.665 63.512 281.001 62.168 281.001 60.776C281.001 59.48 280.641 58.424 279.921 57.608C279.249 56.792 278.145 56.384 276.609 56.384C274.065 56.384 271.641 58.136 269.337 61.64C267.033 65.096 265.161 69.464 263.721 74.744C262.329 80.024 261.633 85.112 261.633 90.008C261.633 93.656 262.257 96.44 263.505 98.36C264.753 100.28 267.009 101.24 270.273 101.24C273.105 101.24 275.721 100.616 278.121 99.368C280.521 98.12 282.585 96.344 284.312 94.04L285.969 94.76C284.769 97.784 282.993 100.304 280.641 102.32C278.289 104.336 275.769 105.824 273.081 106.784C270.393 107.696 267.849 108.152 265.449 108.152ZM294.614 107.288C291.062 107.288 288.254 106.376 286.19 104.552C284.126 102.728 283.094 99.848 283.094 95.912C283.094 92.648 283.766 89.024 285.11 85.04C286.454 81.056 288.614 77.624 291.59 74.744C294.566 71.816 298.31 70.352 302.822 70.352C308.966 70.352 312.038 74.192 312.038 81.872V81.944C312.182 81.992 312.446 82.016 312.83 82.016C314.414 82.016 316.238 81.608 318.302 80.792C320.366 79.928 322.238 78.896 323.918 77.696L324.566 79.64C323.174 81.128 321.35 82.4 319.094 83.456C316.886 84.464 314.462 85.184 311.822 85.616C311.438 89.984 310.454 93.8 308.87 97.064C307.286 100.328 305.246 102.848 302.75 104.624C300.254 106.4 297.542 107.288 294.614 107.288ZM297.494 100.808C298.646 100.808 299.798 100.16 300.95 98.864C302.102 97.52 303.11 95.72 303.974 93.464C304.838 91.16 305.462 88.616 305.846 85.832C304.55 85.544 303.902 84.536 303.902 82.808C303.902 80.84 304.646 79.544 306.134 78.92C306.038 77.336 305.798 76.256 305.414 75.68C305.03 75.056 304.358 74.744 303.398 74.744C301.814 74.744 300.278 75.896 298.79 78.2C297.302 80.504 296.102 83.264 295.19 86.48C294.278 89.696 293.822 92.528 293.822 94.976C293.822 97.28 294.086 98.84 294.614 99.656C295.142 100.424 296.102 100.808 297.494 100.808ZM326.254 107.288C322.702 107.288 319.894 106.376 317.83 104.552C315.766 102.728 314.734 99.848 314.734 95.912C314.734 92.648 315.406 89.024 316.75 85.04C318.094 81.056 320.254 77.624 323.23 74.744C326.206 71.816 329.95 70.352 334.462 70.352C340.606 70.352 343.678 74.192 343.678 81.872V81.944C343.822 81.992 344.086 82.016 344.47 82.016C346.054 82.016 347.878 81.608 349.942 80.792C352.006 79.928 353.878 78.896 355.558 77.696L356.206 79.64C354.814 81.128 352.99 82.4 350.734 83.456C348.526 84.464 346.102 85.184 343.462 85.616C343.078 89.984 342.094 93.8 340.51 97.064C338.926 100.328 336.886 102.848 334.39 104.624C331.894 106.4 329.182 107.288 326.254 107.288ZM329.134 100.808C330.286 100.808 331.438 100.16 332.59 98.864C333.742 97.52 334.75 95.72 335.614 93.464C336.478 91.16 337.102 88.616 337.486 85.832C336.19 85.544 335.542 84.536 335.542 82.808C335.542 80.84 336.286 79.544 337.774 78.92C337.678 77.336 337.438 76.256 337.054 75.68C336.67 75.056 335.998 74.744 335.038 74.744C333.454 74.744 331.918 75.896 330.43 78.2C328.942 80.504 327.742 83.264 326.83 86.48C325.918 89.696 325.462 92.528 325.462 94.976C325.462 97.28 325.726 98.84 326.254 99.656C326.782 100.424 327.742 100.808 329.134 100.808ZM354.367 107.432C352.063 107.432 350.191 106.712 348.751 105.272C347.359 103.784 346.663 101.576 346.663 98.648C346.663 97.448 346.855 95.888 347.239 93.968L354.943 57.896L365.599 56.456L357.319 95.336C357.127 96.056 357.031 96.752 357.031 97.424C357.031 99.344 358.015 100.304 359.983 100.304C360.847 100.304 361.615 100.16 362.287 99.872C362.095 102.272 361.231 104.144 359.695 105.488C358.207 106.784 356.431 107.432 354.367 107.432Z" fill="url(#paint0_radial)"/>
</g>
<defs>
<filter id="filter0_d" x="17.1429" y="28.7623" width="375.388" height="122.238" filterUnits="userSpaceOnUse" color-interpolation-filters="sRGB">
<feFlood flood-opacity="0" result="BackgroundImageFix"/>
<feColorMatrix in="SourceAlpha" type="matrix" values="0 0 0 0 0 0 0 0 0 0 0 0 0 0 0 0 0 0 127 0"/>
<feOffset dy="4"/>
<feGaussianBlur stdDeviation="2"/>
<feColorMatrix type="matrix" values="0 0 0 0 0 0 0 0 0 0 0 0 0 0 0 0 0 0 0.25 0"/>
<feBlend mode="normal" in2="BackgroundImageFix" result="effect1_dropShadow"/>
<feBlend mode="normal" in="SourceGraphic" in2="effect1_dropShadow" result="shape"/>
</filter>
<radialGradient id="paint0_radial" cx="0" cy="0" r="1" gradientUnits="userSpaceOnUse" gradientTransform="translate(200.5 80) rotate(89.5993) scale(71.5017 269.323)">
<stop stop-color="#FF6489"/>
<stop offset="1" stop-color="#FF0E39"/>
</radialGradient>
<linearGradient id="paint1_linear" x1="200.5" y1="35" x2="200.5" y2="125" gradientUnits="userSpaceOnUse">
<stop stop-color="white"/>
<stop offset="1" stop-color="white"/>
</linearGradient>
</defs>
</svg>
