<svg width="87" height="98" viewBox="0 0 87 98" fill="none" xmlns="http://www.w3.org/2000/svg">
<g filter="url(#filter0_d)">
<path d="M38.4233 26.208L36.0128 8.37013L23.4682 10.0653L20.8212 22.444L38.4233 26.208ZM49.0793 24.768L66.6859 28.5107L72.0011 3.50685L46.6688 6.93013L49.0793 24.768ZM43.9673 48.816L26.3607 45.0733L21.3244 68.7653L45.4621 66.7538L43.9673 48.816ZM50.3033 45.792L38.0675 32.5902L37.9862 32.6656L37.9058 32.742L50.3033 45.792ZM54.9113 39.024L38.2609 32.1855L38.2609 32.1855L54.9113 39.024ZM54.3353 24.048L40.3877 35.4263L40.3877 35.4263L54.3353 24.048ZM33.8873 25.92L21.6465 12.7229L21.5984 12.7675L21.5507 12.8124L33.8873 25.92ZM29.4953 42.552L13.184 50.1639L13.2868 50.3843L13.3956 50.6018L29.4953 42.552ZM29.9993 43.704V61.704H47.9993V43.704H29.9993ZM24.1673 42.12L12.241 55.6019L12.5143 55.8437L12.7972 56.0742L24.1673 42.12ZM26.0393 27.792L12.4516 15.9863L12.4442 15.9948L12.4369 16.0032L26.0393 27.792ZM35.7593 20.736L43.1625 37.1431L43.2452 37.1058L43.3276 37.0676L35.7593 20.736ZM57.0713 19.944L48.9006 35.9827L48.9006 35.9827L57.0713 19.944ZM62.6873 25.128L46.9524 33.8696L47.0688 34.0789L47.1906 34.2851L62.6873 25.128ZM61.9673 41.328L46.4011 32.2896L46.3462 32.3841L46.2924 32.4793L61.9673 41.328ZM54.6953 48.672L63.8524 64.1687L63.9388 64.1176L64.0247 64.0656L54.6953 48.672ZM43.3913 51.48V33.48H28.8362L25.7899 47.7127L43.3913 51.48ZM38.9993 72V90H53.5543L56.6006 75.7673L38.9993 72ZM28.6313 72L11.0292 68.236L6.37529 90H28.6313V72ZM40.8338 44.0459L51.4898 42.6059L46.6688 6.93013L36.0128 8.37013L40.8338 44.0459ZM31.4727 21.0253L26.3607 45.0733L61.5739 52.5587L66.6859 28.5107L31.4727 21.0253ZM45.4621 66.7538C52.435 66.1728 58.2639 63.0571 62.7008 58.842L37.9058 32.742C38.1387 32.5207 38.6678 32.081 39.5262 31.6713C40.412 31.2485 41.4261 30.9654 42.4725 30.8782L45.4621 66.7538ZM62.539 58.9937C66.5778 55.2505 69.5488 50.7634 71.5616 45.8625L38.2609 32.1855C38.1531 32.4479 38.0736 32.5708 38.0525 32.6018C38.034 32.629 38.0407 32.6151 38.0675 32.5902L62.539 58.9937ZM71.5616 45.8625C73.4491 41.267 74.5673 36.3094 74.5673 31.104H38.5673C38.5673 31.1131 38.5672 31.1866 38.5343 31.344C38.5005 31.5056 38.4261 31.7832 38.2609 32.1855L71.5616 45.8625ZM74.5673 31.104C74.5673 25.0349 72.939 18.3773 68.2829 12.6697L40.3877 35.4263C39.6257 34.4922 39.128 33.4956 38.8474 32.6087C38.58 31.7632 38.5673 31.2049 38.5673 31.104H74.5673ZM68.2829 12.6697C62.5015 5.5829 54.4677 3.312 47.6393 3.312V39.312C47.3226 39.312 46.2239 39.2663 44.7369 38.6587C43.1395 38.006 41.5922 36.9027 40.3877 35.4263L68.2829 12.6697ZM47.6393 3.312C38.6311 3.312 29.1813 5.73411 21.6465 12.7229L46.1281 39.1171C45.9777 39.2565 45.8207 39.3696 45.6824 39.4503C45.5473 39.5292 45.4824 39.5467 45.5282 39.5313C45.6347 39.4957 46.2585 39.312 47.6393 39.312V3.312ZM21.5507 12.8124C13.8642 20.0468 10.9913 29.5564 10.9913 38.808H46.9913C46.9913 37.8044 47.1404 37.5793 47.042 37.8383C46.992 37.97 46.8964 38.176 46.7372 38.4156C46.5771 38.6565 46.3969 38.8648 46.2238 39.0276L21.5507 12.8124ZM10.9913 38.808C10.9913 40.7439 11.0255 45.5385 13.184 50.1639L45.8066 34.9401C46.3037 36.0053 46.5704 36.8942 46.712 37.4474C46.8585 38.0191 46.9259 38.4485 46.9564 38.6746C47.013 39.0953 46.9913 39.1906 46.9913 38.808H10.9913ZM13.3956 50.6018C13.5153 50.8412 13.4817 50.7857 13.3824 50.5587C13.3425 50.4674 13.172 50.0778 12.9783 49.5243C12.8827 49.2511 12.703 48.7166 12.5288 48.0201C12.4394 47.6623 12.3216 47.144 12.2209 46.5107C12.1264 45.917 11.9993 44.9316 11.9993 43.704H47.9993C47.9993 41.4896 47.5797 39.7916 47.454 39.2889C47.2693 38.5504 47.0739 37.9649 46.9572 37.6317C46.7215 36.9582 46.4881 36.4126 46.3641 36.1293C46.0968 35.5183 45.8113 34.9348 45.595 34.5022L13.3956 50.6018ZM29.9993 25.704C29.8666 25.704 30.3831 25.6841 31.3152 25.9373C32.2863 26.2011 33.8737 26.8101 35.5374 28.1658L12.7972 56.0742C18.654 60.8464 25.4254 61.704 29.9993 61.704V25.704ZM36.0936 28.6381C40.296 32.3555 40.2953 36.6484 40.2953 36.72H4.29528C4.29528 41.7836 5.54259 49.6765 12.241 55.6019L36.0936 28.6381ZM40.2953 36.72C40.2953 37.6941 40.0837 38.5419 39.8308 39.1451C39.5982 39.6998 39.4222 39.8341 39.6417 39.5807L12.4369 16.0032C7.81209 21.3395 4.29528 28.3472 4.29528 36.72H40.2953ZM39.627 39.5977C40.2817 38.8442 41.3259 37.9718 43.1625 37.1431L28.3561 4.32891C22.3206 7.05221 16.8849 10.8838 12.4516 15.9863L39.627 39.5977ZM43.3276 37.0676C45.1366 36.2293 46.5021 36 47.5673 36V-4.29153e-06C40.7604 -4.29153e-06 34.254 1.59471 28.191 4.40441L43.3276 37.0676ZM47.5673 36C48.4535 36 48.9658 36.077 49.1801 36.1209C49.3842 36.1626 49.2472 36.1593 48.9006 35.9827L65.2419 3.90529C59.476 0.967917 53.306 -4.29153e-06 47.5673 -4.29153e-06V36ZM48.9006 35.9827C48.8784 35.9714 48.5851 35.8177 48.1742 35.4385C47.7482 35.0452 47.3106 34.5141 46.9524 33.8696L78.4221 16.3864C75.2243 10.6303 70.4673 6.56723 65.2419 3.90528L48.9006 35.9827ZM47.1906 34.2851C46.9827 33.9333 46.8075 33.5226 46.6932 33.0918C46.5805 32.667 46.5593 32.345 46.5593 32.184H82.5593C82.5593 26.5603 81.1647 21.0152 78.184 15.9709L47.1906 34.2851ZM46.5593 32.184C46.5593 32.1302 46.5632 32.0713 46.5713 32.0135C46.5794 31.9558 46.5891 31.9168 46.5936 31.901C46.5979 31.886 46.593 31.9075 46.5669 31.9681C46.5405 32.0294 46.4899 32.1365 46.4011 32.2896L77.5335 50.3664C80.687 44.9353 82.5593 38.7984 82.5593 32.184H46.5593ZM46.2924 32.4793C46.257 32.5421 46.1204 32.8211 45.3658 33.2784L64.0247 64.0656C69.6061 60.6829 74.3176 56.0659 77.6421 50.1767L46.2924 32.4793ZM45.5382 33.1753C45.47 33.2156 45.0595 33.48 43.7513 33.48V69.48C50.699 69.48 57.5845 67.8724 63.8524 64.1687L45.5382 33.1753ZM43.7513 33.48H43.3913V69.48H43.7513V33.48ZM25.7899 47.7127L21.3979 68.2327L56.6006 75.7673L60.9926 55.2473L25.7899 47.7127ZM38.9993 54H28.6313V90H38.9993V54ZM46.2333 75.764L56.0253 29.972L20.8212 22.444L11.0292 68.236L46.2333 75.764Z" fill="white"/>
<path d="M38.4233 26.208L49.0793 24.768L43.9673 48.816C46.2713 48.624 48.3833 47.616 50.3033 45.792C52.2713 43.968 53.8073 41.712 54.9113 39.024C56.0153 36.336 56.5673 33.696 56.5673 31.104C56.5673 28.224 55.8233 25.872 54.3353 24.048C52.8473 22.224 50.6153 21.312 47.6393 21.312C41.7833 21.312 37.1993 22.848 33.8873 25.92C30.6233 28.992 28.9913 33.288 28.9913 38.808C28.9913 40.584 29.1593 41.832 29.4953 42.552C29.8313 43.224 29.9993 43.608 29.9993 43.704C27.4073 43.704 25.4633 43.176 24.1673 42.12C22.9193 41.016 22.2953 39.216 22.2953 36.72C22.2953 33.648 23.5433 30.672 26.0393 27.792C28.5833 24.864 31.8233 22.512 35.7593 20.736C39.6953 18.912 43.6313 18 47.5673 18C51.3593 18 54.5273 18.648 57.0713 19.944C59.6153 21.24 61.4873 22.968 62.6873 25.128C63.9353 27.24 64.5593 29.592 64.5593 32.184C64.5593 35.304 63.6953 38.352 61.9673 41.328C60.2873 44.304 57.8633 46.752 54.6953 48.672C51.5273 50.544 47.8793 51.48 43.7513 51.48H43.3913L38.9993 72H28.6313L38.4233 26.208Z" fill="url(#paint0_radial)"/>
</g>
<defs>
<filter id="filter0_d" x="0.295288" y="0" width="86.264" height="98" filterUnits="userSpaceOnUse" color-interpolation-filters="sRGB">
<feFlood flood-opacity="0" result="BackgroundImageFix"/>
<feColorMatrix in="SourceAlpha" type="matrix" values="0 0 0 0 0 0 0 0 0 0 0 0 0 0 0 0 0 0 127 0"/>
<feOffset dy="4"/>
<feGaussianBlur stdDeviation="2"/>
<feColorMatrix type="matrix" values="0 0 0 0 0 0 0 0 0 0 0 0 0 0 0 0 0 0 0.25 0"/>
<feBlend mode="normal" in2="BackgroundImageFix" result="effect1_dropShadow"/>
<feBlend mode="normal" in="SourceGraphic" in2="effect1_dropShadow" result="shape"/>
</filter>
<radialGradient id="paint0_radial" cx="0" cy="0" r="1" gradientUnits="userSpaceOnUse" gradientTransform="translate(42.5 28.3217) rotate(90) scale(20.1399 23.049)">
<stop stop-color="#FF6489"/>
<stop offset="1" stop-color="#FF0E39"/>
</radialGradient>
</defs>
</svg>
