<svg width="313" height="313" viewBox="0 0 313 313" fill="none" xmlns="http://www.w3.org/2000/svg">
<circle cx="156.5" cy="156.5" r="144" stroke="#8743F5" stroke-width="25"/>
<ellipse cx="86.4005" cy="156.756" rx="36.7051" ry="36.7051" fill="#845612"/>
<ellipse cx="93.4536" cy="157.26" rx="32.9626" ry="32.8907" fill="#E49C31"/>
<ellipse cx="226.6" cy="156.756" rx="36.7051" ry="36.7051" fill="#845612"/>
<ellipse cx="219.259" cy="157.26" rx="32.9626" ry="32.8907" fill="#E49C31"/>
<path fill-rule="evenodd" clip-rule="evenodd" d="M226.6 193.461C246.871 193.461 263.305 177.028 263.305 156.756C263.305 136.485 246.871 120.051 226.6 120.051V193.461Z" fill="black" fill-opacity="0.22"/>
<ellipse cx="156.428" cy="156.684" rx="86.1491" ry="86.1491" fill="#845612"/>
<ellipse cx="132.462" cy="147.256" rx="33.3945" ry="33.3945" fill="#FFDB80"/>
<ellipse cx="180.394" cy="147.256" rx="33.3945" ry="33.3945" fill="#FFDB80"/>
<ellipse cx="156.5" cy="183.601" rx="33.3945" ry="59.232" fill="#FFDB80"/>
<ellipse cx="130.159" cy="147.256" rx="11.8032" ry="11.8032" fill="#232323"/>
<ellipse cx="168.663" cy="197.996" rx="7.8448" ry="7.84483" fill="#232323"/>
<circle cx="142.034" cy="197.996" r="7.84483" fill="#232323"/>
<ellipse cx="180.394" cy="147.256" rx="11.8032" ry="11.8032" fill="#232323"/>
<path fill-rule="evenodd" clip-rule="evenodd" d="M156.356 242.833C203.902 242.794 242.433 204.239 242.433 156.684C242.433 109.129 203.902 70.5741 156.356 70.5352V242.833Z" fill="black" fill-opacity="0.22"/>
</svg>
