<svg width="336" height="336" viewBox="0 0 336 336" fill="none" xmlns="http://www.w3.org/2000/svg">
<rect width="336" height="336" fill="#633A96"/>
<g style="mix-blend-mode:overlay">
<path d="M58.3333 50.6667C56.1651 50.6382 54.0243 51.1543 52.1072 52.1676C50.19 53.1809 48.5578 54.6591 47.36 56.4667V50.6667C47.3565 48.9492 46.6726 47.303 45.4582 46.0885C44.2437 44.874 42.5975 44.1902 40.88 44.1867C40.3071 44.1867 39.7577 44.4142 39.3527 44.8193C38.9476 45.2244 38.72 45.7738 38.72 46.3467C38.72 46.9195 38.9476 47.4689 39.3527 47.874C39.7577 48.2791 40.3071 48.5067 40.88 48.5067C41.4518 48.5102 41.9992 48.7389 42.4035 49.1432C42.8078 49.5475 43.0365 50.0949 43.04 50.6667V68C43.04 69.1457 43.4951 70.2446 44.3053 71.0547C45.1155 71.8649 46.2143 72.32 47.36 72.32H59.24C59.5264 72.32 59.8011 72.2062 60.0037 72.0037C60.2062 71.8011 60.32 71.5264 60.32 71.24V70.16C60.3165 69.5882 60.0878 69.0408 59.6835 68.6365C59.2792 68.2322 58.7318 68.0035 58.16 68H56L64.64 61.52V71.24C64.64 71.5264 64.7538 71.8011 64.9563 72.0037C65.1589 72.2062 65.4336 72.32 65.72 72.32H67.88C68.1664 72.32 68.4411 72.2062 68.6437 72.0037C68.8462 71.8011 68.96 71.5264 68.96 71.24V57.2C68.2567 57.3971 67.5304 57.5002 66.8 57.5067C64.819 57.5079 62.8975 56.8294 61.3566 55.5845C59.8156 54.3396 58.7485 52.6037 58.3333 50.6667V50.6667Z" fill="white"/>
<path d="M68.96 44.12H64.64L60.32 39.8V48.8667C60.32 49.7176 60.4876 50.5603 60.8133 51.3465C61.1389 52.1326 61.6162 52.847 62.218 53.4487C62.8197 54.0504 63.534 54.5278 64.3202 54.8534C65.1064 55.1791 65.949 55.3467 66.8 55.3467C67.651 55.3467 68.4936 55.1791 69.2798 54.8534C70.066 54.5278 70.7803 54.0504 71.3821 53.4487C71.9838 52.847 72.4611 52.1326 72.7867 51.3465C73.1124 50.5603 73.28 49.7176 73.28 48.8667V39.8L68.96 44.12ZM64.1067 49.52C63.8931 49.52 63.6843 49.4567 63.5067 49.338C63.3291 49.2193 63.1906 49.0506 63.1089 48.8533C63.0271 48.656 63.0058 48.4388 63.0474 48.2293C63.0891 48.0198 63.192 47.8274 63.343 47.6763C63.494 47.5253 63.6865 47.4224 63.896 47.3808C64.1055 47.3391 64.3226 47.3605 64.52 47.4422C64.7173 47.524 64.886 47.6624 65.0047 47.84C65.1233 48.0176 65.1867 48.2264 65.1867 48.44C65.1867 48.7264 65.0729 49.0011 64.8703 49.2037C64.6678 49.4062 64.3931 49.52 64.1067 49.52V49.52ZM69.44 49.52C69.2264 49.52 69.0176 49.4567 68.84 49.338C68.6624 49.2193 68.524 49.0506 68.4422 48.8533C68.3605 48.656 68.3391 48.4388 68.3808 48.2293C68.4224 48.0198 68.5253 47.8274 68.6763 47.6763C68.8274 47.5253 69.0198 47.4224 69.2293 47.3808C69.4388 47.3391 69.656 47.3605 69.8533 47.4422C70.0506 47.524 70.2193 47.6624 70.338 47.84C70.4567 48.0176 70.52 48.2264 70.52 48.44C70.5237 48.7184 70.4184 48.9872 70.2265 49.189C70.0347 49.3908 69.7716 49.5096 69.4933 49.52H69.44Z" fill="white"/>
</g>
<g style="mix-blend-mode:overlay">
<path d="M151 52C148.795 52 147 53.7947 147 56C147 58.2053 148.795 60 151 60C153.205 60 155 58.2053 155 56C155 53.7947 153.205 52 151 52ZM151 57.3333C150.264 57.3333 149.667 56.736 149.667 56C149.667 55.264 150.264 54.6667 151 54.6667C151.736 54.6667 152.333 55.264 152.333 56C152.333 56.736 151.736 57.3333 151 57.3333ZM185 52C182.795 52 181 53.7947 181 56C181 58.2053 182.795 60 185 60C187.205 60 189 58.2053 189 56C189 53.7947 187.205 52 185 52ZM185 57.3333C184.264 57.3333 183.667 56.736 183.667 56C183.667 55.264 184.264 54.6667 185 54.6667C185.736 54.6667 186.333 55.264 186.333 56C186.333 56.736 185.736 57.3333 185 57.3333ZM157.333 52V60H178.667V52H157.333ZM172.116 54.6667C172.043 55.0533 172 55.4933 172 56C172 56.5067 172.043 56.9467 172.116 57.3333H165.217C165.291 56.9467 165.333 56.5067 165.333 56C165.333 55.4933 165.291 55.0533 165.217 54.6667H172.116ZM160 54.6667H162.432C162.509 54.7933 162.667 55.1533 162.667 56C162.667 56.8467 162.509 57.2067 162.432 57.3333H160V54.6667ZM176 57.3333H174.901C174.824 57.2067 174.667 56.8467 174.667 56C174.667 55.1533 174.824 54.7933 174.901 54.6667H176V57.3333ZM142.667 41.3333C142.667 42.0707 142.071 42.6667 141.333 42.6667C140.596 42.6667 140 42.0707 140 41.3333C140 40.596 140.596 40 141.333 40C142.071 40 142.667 40.596 142.667 41.3333ZM196 41.3333C196 42.0707 195.404 42.6667 194.667 42.6667C193.929 42.6667 193.333 42.0707 193.333 41.3333C193.333 40.596 193.929 40 194.667 40C195.404 40 196 40.596 196 41.3333ZM142.667 70.6667C142.667 71.404 142.071 72 141.333 72C140.596 72 140 71.404 140 70.6667C140 69.9293 140.596 69.3333 141.333 69.3333C142.071 69.3333 142.667 69.9293 142.667 70.6667ZM196 70.6667C196 71.404 195.404 72 194.667 72C193.929 72 193.333 71.404 193.333 70.6667C193.333 69.9293 193.929 69.3333 194.667 69.3333C195.404 69.3333 196 69.9293 196 70.6667ZM160 69.3333C160 70.0707 159.404 70.6667 158.667 70.6667H157.333C156.596 70.6667 156 70.0707 156 69.3333C156 68.596 156.596 68 157.333 68H158.667C159.404 68 160 68.596 160 69.3333ZM180 69.3333C180 70.0707 179.404 70.6667 178.667 70.6667H177.333C176.596 70.6667 176 70.0707 176 69.3333C176 68.596 176.596 68 177.333 68H178.667C179.404 68 180 68.596 180 69.3333ZM196 36H140C137.795 36 136 37.7947 136 40V72C136 74.2053 137.795 76 140 76H196C198.205 76 200 74.2053 200 72V40C200 37.7947 198.205 36 196 36ZM151.356 73.3333L154.213 66.6667H181.789L184.647 73.3333H151.356ZM197.333 72C197.333 72.736 196.736 73.3333 196 73.3333H187.545L183.545 64H152.455L148.455 73.3333H140C139.264 73.3333 138.667 72.736 138.667 72V40C138.667 39.264 139.264 38.6667 140 38.6667H196C196.736 38.6667 197.333 39.264 197.333 40V72Z" fill="white"/>
</g>
<g style="mix-blend-mode:overlay">
<path d="M306 144H254V192H306V144Z" stroke="white" stroke-width="2" stroke-miterlimit="10" stroke-linejoin="round"/>
<path d="M266 170V192" stroke="white" stroke-width="2" stroke-miterlimit="10" stroke-linejoin="round"/>
<path d="M268 144H260V170H268V144Z" stroke="white" stroke-width="2" stroke-miterlimit="10" stroke-linejoin="round"/>
<path d="M280 170V192" stroke="white" stroke-width="2" stroke-miterlimit="10" stroke-linejoin="round"/>
<path d="M284 144H276V170H284V144Z" stroke="white" stroke-width="2" stroke-miterlimit="10" stroke-linejoin="round"/>
<path d="M294 170V192" stroke="white" stroke-width="2" stroke-miterlimit="10" stroke-linejoin="round"/>
<path d="M300 144H292V170H300V144Z" stroke="white" stroke-width="2" stroke-miterlimit="10" stroke-linejoin="round"/>
</g>
<g style="mix-blend-mode:overlay">
<path d="M262 77C269.382 77 275.433 71.253 275.949 64H280C280.309 64 280.6 63.857 280.789 63.614L284.746 58.526C284.27 59.933 284 61.434 284 63C284 70.72 290.28 77 298 77C305.72 77 312 70.72 312 63C312 55.28 305.72 49 298 49C297.263 49 296.545 49.074 295.838 49.185L293.257 38H302C303.103 38 304 38.897 304 40C304 41.103 303.103 42 302 42H300V44H302C304.206 44 306 42.206 306 40C306 37.794 304.206 36 302 36H292C291.695 36 291.407 36.139 291.218 36.377C291.028 36.615 290.957 36.927 291.026 37.225L292.589 44H274.155L273.428 42H278C279.654 42 281 40.654 281 39C281 37.346 279.654 36 278 36H268C265.794 36 264 37.794 264 40C264 42.206 265.794 44 268 44C268.266 44 268.52 43.895 268.707 43.707L270.414 42H271.3L272.217 44.521L272.147 44.478L268.422 50.573C266.496 49.574 264.315 49 262 49C254.28 49 248 55.28 248 63C248 70.72 254.28 77 262 77ZM270 40C269.734 40 269.48 40.105 269.293 40.293L267.622 41.964C266.699 41.787 266 40.974 266 40C266 38.897 266.897 38 268 38H278C278.552 38 279 38.449 279 39C279 39.551 278.552 40 278 40H270ZM298 51C304.617 51 310 56.383 310 63C310 69.617 304.617 75 298 75C291.383 75 286 69.617 286 63C286 57.661 289.507 53.129 294.337 51.576L297.025 63.225L298.974 62.775L296.288 51.137C296.849 51.056 297.417 51 298 51ZM290.397 51.261L293.38 47.426L293.886 49.619C292.638 50.003 291.469 50.564 290.397 51.261ZM291.956 46L280.321 60.958L274.882 46H291.956ZM273.055 46.828L278.573 62H275.95C275.646 57.725 273.42 53.98 270.126 51.621L273.055 46.828ZM273.949 62H263.783L269.08 53.333C271.803 55.333 273.654 58.445 273.949 62ZM262 51C263.934 51 265.756 51.471 267.375 52.286L261.146 62.478C260.958 62.787 260.951 63.173 261.127 63.489C261.303 63.805 261.639 64 262 64H273.949C273.438 70.149 268.28 75 262 75C255.383 75 250 69.617 250 63C250 56.383 255.383 51 262 51Z" fill="white"/>
<path d="M298 73C303.514 73 308 68.514 308 63H306C306 67.411 302.411 71 298 71V73Z" fill="white"/>
<path d="M262 55V53C256.486 53 252 57.486 252 63H254C254 58.589 257.589 55 262 55Z" fill="white"/>
<path d="M260.453 37.374L259.006 35.994C258.524 36.5 258.053 37.031 257.609 37.571L259.152 38.842C259.566 38.339 260.004 37.845 260.453 37.374Z" fill="white"/>
<path d="M263.357 34.737L262.123 33.164C261.57 33.598 261.028 34.055 260.514 34.522L261.858 36.003C262.338 35.568 262.843 35.142 263.357 34.737Z" fill="white"/>
<path d="M266.608 32.549L265.614 30.814C265.008 31.162 264.406 31.536 263.826 31.926L264.943 33.585C265.483 33.221 266.044 32.873 266.608 32.549Z" fill="white"/>
<path d="M270.142 30.857L269.413 28.995C268.765 29.248 268.114 29.531 267.48 29.835L268.343 31.639C268.935 31.356 269.539 31.093 270.142 30.857Z" fill="white"/>
<path d="M257.96 40.401L256.329 39.243C255.926 39.811 255.536 40.404 255.173 41.006L256.884 42.041C257.223 41.481 257.585 40.93 257.96 40.401Z" fill="white"/>
<path d="M254.408 47.369L252.514 46.73C252.29 47.393 252.088 48.073 251.913 48.751L253.851 49.25C254.013 48.618 254.2 47.985 254.408 47.369Z" fill="white"/>
<path d="M255.93 43.755L254.149 42.847C253.83 43.473 253.531 44.117 253.26 44.759L255.104 45.534C255.354 44.936 255.633 44.337 255.93 43.755Z" fill="white"/>
<path d="M297.403 32.8C296.841 32.379 296.259 31.974 295.674 31.597L294.592 33.279C295.137 33.63 295.679 34.008 296.202 34.4L297.403 32.8Z" fill="white"/>
<path d="M293.861 30.521C293.243 30.185 292.608 29.869 291.976 29.581L291.148 31.402C291.738 31.67 292.329 31.964 292.906 32.277L293.861 30.521Z" fill="white"/>
<path d="M273.885 29.695L273.434 27.747C272.748 27.906 272.064 28.091 271.399 28.297L271.993 30.207C272.61 30.015 273.247 29.843 273.885 29.695Z" fill="white"/>
<path d="M290.025 28.781C289.367 28.538 288.692 28.318 288.022 28.125L287.47 30.047C288.094 30.226 288.721 30.432 289.334 30.658L290.025 28.781Z" fill="white"/>
<path d="M277.756 29.092L277.592 27.099C276.892 27.157 276.189 27.24 275.501 27.347L275.808 29.324C276.449 29.224 277.104 29.146 277.756 29.092Z" fill="white"/>
<path d="M285.977 27.617C285.291 27.473 284.593 27.353 283.9 27.26L283.634 29.242C284.279 29.328 284.929 29.44 285.567 29.574L285.977 27.617Z" fill="white"/>
<path d="M280 29C280.564 29 281.124 29.018 281.68 29.051L281.801 27.055C281.206 27.019 280.605 27 280 27L279.695 27.001L279.715 29.001L280 29Z" fill="white"/>
<path d="M265.143 78.547L264.041 80.216C264.629 80.604 265.234 80.973 265.84 81.313L266.819 79.569C266.254 79.252 265.69 78.909 265.143 78.547Z" fill="white"/>
<path d="M270.367 81.231C269.756 80.998 269.148 80.74 268.562 80.465L267.712 82.276C268.343 82.572 268.996 82.849 269.653 83.1L270.367 81.231Z" fill="white"/>
<path d="M297.607 79.044L296.392 77.455C295.877 77.849 295.339 78.231 294.79 78.591L295.89 80.262C296.478 79.876 297.056 79.466 297.607 79.044Z" fill="white"/>
<path d="M286.231 84.329L285.803 82.375C285.167 82.514 284.518 82.632 283.873 82.725L284.158 84.704C284.852 84.604 285.549 84.479 286.231 84.329Z" fill="white"/>
<path d="M294.088 81.354L293.115 79.607C292.546 79.924 291.958 80.224 291.368 80.498L292.212 82.311C292.846 82.017 293.477 81.695 294.088 81.354Z" fill="white"/>
<path d="M290.269 83.129L289.56 81.259C288.949 81.49 288.324 81.701 287.703 81.886L288.271 83.803C288.938 83.605 289.61 83.378 290.269 83.129Z" fill="white"/>
<path d="M278.002 82.927C277.351 82.88 276.694 82.808 276.052 82.714L275.761 84.693C276.452 84.795 277.157 84.872 277.856 84.923L278.002 82.927Z" fill="white"/>
<path d="M281.925 82.933C281.29 82.978 280.643 83 279.962 83L280 85C280.688 85 281.384 84.976 282.065 84.928L281.925 82.933Z" fill="white"/>
<path d="M274.121 82.359C273.485 82.217 272.847 82.051 272.223 81.863L271.649 83.779C272.318 83.98 273.004 84.159 273.688 84.311L274.121 82.359Z" fill="white"/>
</g>
<g style="mix-blend-mode:overlay">
<path d="M158.882 267.827C158.882 267.827 158.882 267.884 158.882 267.916C158.88 267.948 158.88 267.979 158.882 268.011C158.882 268.011 158.882 268.068 158.913 268.1L158.951 268.182L159.008 268.271L159.046 268.328C159.331 268.683 162.988 273.15 167.987 273.15C172.645 273.15 176.225 268.486 176.345 268.284V268.239L176.396 268.15L176.434 268.068V267.979C176.436 267.948 176.436 267.916 176.434 267.884C176.434 267.884 176.434 267.827 176.434 267.796C176.434 267.764 176.434 267.732 176.434 267.701C176.434 267.669 176.434 267.637 176.434 267.606C176.434 267.574 176.434 267.549 176.434 267.517C176.436 267.485 176.436 267.453 176.434 267.422V267.333L176.396 267.251L176.345 267.162V267.118C176.193 266.921 172.645 262.251 167.987 262.251C162.988 262.251 159.331 266.687 159.046 267.073L159.008 267.13L158.951 267.219L158.913 267.301C158.913 267.301 158.913 267.358 158.882 267.39C158.88 267.422 158.88 267.453 158.882 267.485C158.882 267.485 158.882 267.542 158.882 267.574C158.882 267.606 158.882 267.637 158.882 267.663C158.882 267.688 158.882 267.796 158.882 267.827ZM168.044 264.203C170.896 264.203 173.386 266.611 174.381 267.739C173.373 268.867 170.889 271.268 168.044 271.268C164.876 271.268 162.183 268.867 161.074 267.732C162.183 266.598 164.838 264.203 168.044 264.203Z" fill="white"/>
<path d="M170.687 284.848C169.641 286.013 168.596 286.584 167.575 286.533C166.004 286.457 164.863 284.949 164.838 284.917C164.681 284.744 164.466 284.635 164.234 284.611C164.002 284.586 163.769 284.648 163.579 284.784C163.39 284.921 163.257 285.122 163.206 285.35C163.156 285.578 163.191 285.816 163.305 286.02C163.374 286.115 164.977 288.282 167.468 288.415H167.683C169.223 288.415 170.699 287.636 172.081 286.09C172.233 285.9 172.307 285.659 172.287 285.417C172.267 285.175 172.155 284.949 171.974 284.787C171.793 284.625 171.557 284.538 171.314 284.545C171.071 284.551 170.84 284.65 170.668 284.822L170.687 284.848Z" fill="white"/>
<path d="M167.734 270.109C168.959 270.109 169.952 269.116 169.952 267.891C169.952 266.666 168.959 265.673 167.734 265.673C166.509 265.673 165.516 266.666 165.516 267.891C165.516 269.116 166.509 270.109 167.734 270.109Z" fill="white"/>
<path d="M197.51 271.781C197.422 271.656 197.305 271.554 197.17 271.483C197.034 271.413 196.883 271.376 196.73 271.376H187.96V262.257C187.96 257.822 184.07 254.267 179.279 254.267H155.453C150.663 254.267 146.772 257.853 146.772 262.257V271.376H137.945C137.794 271.376 137.644 271.413 137.509 271.483C137.375 271.553 137.259 271.655 137.171 271.779C137.084 271.903 137.027 272.046 137.006 272.196C136.986 272.347 137.001 272.5 137.052 272.643C137.191 273.023 140.372 281.61 146.779 282.148L146.867 289.068C146.839 294.723 148.996 300.172 152.887 304.276C154.756 306.27 157.012 307.861 159.519 308.951C162.025 310.041 164.728 310.606 167.461 310.612V310.612C170.195 310.607 172.898 310.042 175.404 308.952C177.911 307.862 180.168 306.271 182.036 304.276C185.945 300.167 188.113 294.707 188.087 289.036L187.96 282.123C194.297 281.584 197.465 273.03 197.624 272.65C197.676 272.506 197.693 272.353 197.673 272.202C197.653 272.05 197.597 271.906 197.51 271.781ZM139.39 273.277H146.772V280.209C142.97 279.791 140.436 275.482 139.39 273.277ZM180.686 302.97C178.993 304.779 176.947 306.221 174.674 307.209C172.402 308.196 169.952 308.708 167.474 308.711V308.711C164.995 308.707 162.543 308.195 160.27 307.207C157.996 306.218 155.95 304.774 154.256 302.964C150.693 299.201 148.724 294.205 148.762 289.023L148.667 282.053V262.257C148.667 258.899 151.709 256.168 155.447 256.168H179.279C183.018 256.168 186.059 258.899 186.059 262.257V282.053L186.186 289.023C186.225 294.209 184.253 299.207 180.686 302.97V302.97ZM187.96 280.203V273.277H195.286C194.234 275.469 191.724 279.747 187.96 280.203Z" fill="white"/>
<path d="M176.605 292.287H158.863C158.61 292.287 158.369 292.387 158.19 292.565C158.012 292.743 157.912 292.985 157.912 293.237C157.912 293.489 158.012 293.731 158.19 293.909C158.369 294.088 158.61 294.188 158.863 294.188H176.605C176.857 294.188 177.099 294.088 177.277 293.909C177.456 293.731 177.556 293.489 177.556 293.237C177.556 292.985 177.456 292.743 177.277 292.565C177.099 292.387 176.857 292.287 176.605 292.287Z" fill="white"/>
</g>
<g style="mix-blend-mode:overlay">
<path d="M176 174.8V162C176 160.4 174.6 159 173 159C171.4 159 170 160.4 170 162V181.4L165.6 173.6C164.8 172.2 162.8 171.8 161.4 172.6C160.2 173.4 159.8 174.8 160.2 176C162.6 182.4 166.2 188.4 170.8 193.8" stroke="white" stroke-width="2" stroke-miterlimit="10" stroke-linecap="round" stroke-linejoin="round"/>
<path d="M176 174.8V159C176 157.4 177.4 156 179 156C180.6 156 182 157.4 182 159V174.8" stroke="white" stroke-width="2" stroke-miterlimit="10" stroke-linecap="round" stroke-linejoin="round"/>
<path d="M182 174.8V162C182 160.4 183.4 159 185 159C186.6 159 188 160.4 188 162V174.8" stroke="white" stroke-width="2" stroke-miterlimit="10" stroke-linecap="round" stroke-linejoin="round"/>
<path d="M188 174.8V164.8C188 163.2 189.4 161.8 191 161.8C192.6 161.8 194 163.2 194 164.8V176.8C194 182.6 192.8 188.6 190.4 194" stroke="white" stroke-width="2" stroke-miterlimit="10" stroke-linecap="round" stroke-linejoin="round"/>
<path d="M166 190C152.8 190 142 179.2 142 166C142 152.8 152.8 142 166 142C178 142 188 150.8 189.8 162.2" stroke="white" stroke-width="2" stroke-miterlimit="10" stroke-linecap="round" stroke-linejoin="round"/>
<path d="M163 172.2C160.8 171 159.2 168.8 159.2 166C159.2 162.2 162.2 159.2 166 159.2C167.6 159.2 169 159.8 170.2 160.6" stroke="white" stroke-width="2" stroke-miterlimit="10" stroke-linecap="round" stroke-linejoin="round"/>
<path d="M166 150C157.2 150 150 157.2 150 166" stroke="white" stroke-width="2" stroke-miterlimit="10" stroke-linecap="round" stroke-linejoin="round"/>
</g>
<g style="mix-blend-mode:overlay">
<path d="M83.9253 136C82.2867 136 80.9947 136.523 79.9587 137.185C79.7813 136.572 79.436 136 78.7373 136C77.16 136 78.1213 137.061 79.052 137.849C78.832 138.032 78.6253 138.211 78.4347 138.389C78.2427 137.837 77.9027 137.355 77.2573 137.355C75.6693 137.355 76.656 138.423 77.5933 139.207C77.4347 139.367 77.268 139.533 77.0947 139.707C76.9027 139.163 76.5627 138.688 75.924 138.688C74.336 138.688 75.3227 139.756 76.26 140.54C76.1147 140.687 75.9653 140.835 75.8173 140.981C75.6227 140.461 75.2813 140.021 74.6667 140.021C73.1027 140.021 74.0347 141.056 74.96 141.837C74.7973 141.999 74.6387 142.156 74.4853 142.309C74.288 141.792 73.948 141.355 73.3333 141.355C71.7707 141.355 72.6987 142.387 73.6227 143.167C73.4493 143.339 73.292 143.496 73.1493 143.639C72.952 143.123 72.612 142.688 72 142.688C70.4413 142.688 71.3613 143.716 72.284 144.496L72 144.777V145.333C72 147.024 71.3667 147.993 71.14 148.287L49.1787 170.267C48.6347 169.795 48 169.031 48 168C48 167.021 49.0587 165.799 49.76 164.988C50.528 164.1 51.192 163.333 50.8427 162.367C50.7507 162.111 50.44 161.499 49.5533 161.351C43.376 160.319 41.592 164.805 40.2907 168.079C39.6013 169.815 38.952 171.452 37.8667 172.267C36.196 173.52 34.184 174.375 32.24 175.2C28.1893 176.923 24 178.703 24 184C24 191.264 33.008 200 38.6667 200C45.1467 200 46.8733 195.693 48.2613 192.232C49.2773 189.697 50.1547 187.508 52.496 186.572C58.548 184.152 59.628 180.731 59.312 179.092C59.1093 178.039 58.3133 177.333 57.3333 177.333C56.3573 177.333 55.7507 177.761 55.308 178.075C54.86 178.392 54.472 178.667 53.3333 178.667C52.86 178.667 52.244 178.593 51.9907 178.249C51.7093 177.864 51.7707 177.144 51.8707 176.681L75.576 152.957L75.6093 152.943C76.4453 152.107 77.1733 152.06 79.568 152.027L80.0213 152.02C81.6107 151.995 82.0267 150.237 82.552 148.012C82.8147 146.896 83.4347 144.277 84 144.021C86.2053 144.021 88 142.231 88 140.032C88 137.808 86.2053 136 83.9253 136ZM53.3333 181.333C54.8653 181.333 55.764 180.945 56.3733 180.572C55.84 181.495 54.52 182.889 51.504 184.096C48.104 185.457 46.872 188.529 45.7853 191.24C44.4213 194.644 43.3427 197.333 38.6667 197.333C34.7 197.333 26.6667 190 26.6667 184C26.6667 180.632 29.0573 179.451 33.2827 177.655C35.3733 176.767 37.5347 175.848 39.4667 174.4C41.152 173.136 41.9733 171.067 42.7693 169.064C43.9507 166.091 44.84 164.18 47.1853 163.9C46.3053 164.969 45.3333 166.385 45.3333 168C45.3333 169.936 46.3613 171.311 47.288 172.159L46.1147 173.333L49.2053 176.423C49.06 177.3 49.0133 178.676 49.8253 179.803C50.328 180.501 51.3453 181.333 53.3333 181.333ZM50.6667 174.115L49.8853 173.333L72 151.197L72.7813 151.979L50.6667 174.115ZM83.9893 141.355C81.38 141.376 80.5907 144.716 79.956 147.4C79.8107 148.019 79.6067 148.883 79.432 149.363C77.5107 149.391 76.088 149.424 74.7867 150.215L73.7373 149.167C74.1413 148.437 74.56 147.353 74.6493 145.908C75.58 144.984 78.0293 142.549 79.66 140.913C80.656 139.912 81.8987 138.667 83.9987 138.667C84 138.667 84 138.667 84 138.667C84.7227 138.667 85.3333 139.292 85.3333 140.031C85.3333 140.76 84.7347 141.355 83.9893 141.355ZM43.6093 176.391L47.6093 180.391L45.724 182.276L41.724 178.276L43.6093 176.391ZM39.6093 180.391L43.6093 184.391L41.724 186.276L37.724 182.276L39.6093 180.391ZM39.6093 189.724L37.724 191.609L32.3907 186.276L34.276 184.391L39.6093 189.724ZM42.6667 190.667C42.6667 191.404 42.0693 192 41.3333 192C40.5973 192 40 191.404 40 190.667C40 189.929 40.5973 189.333 41.3333 189.333C42.0693 189.333 42.6667 189.929 42.6667 190.667ZM46.6667 186.667C46.6667 187.404 46.0693 188 45.3333 188C44.5973 188 44 187.404 44 186.667C44 185.929 44.5973 185.333 45.3333 185.333C46.0693 185.333 46.6667 185.929 46.6667 186.667ZM41.3333 194.667C41.3333 195.404 40.736 196 40 196C39.264 196 38.6667 195.404 38.6667 194.667C38.6667 193.929 39.264 193.333 40 193.333C40.736 193.333 41.3333 193.929 41.3333 194.667Z" fill="white"/>
</g>
<g style="mix-blend-mode:overlay">
<path d="M74.6667 254C72.006 254.005 69.444 255.008 67.4865 256.81C65.5289 258.612 64.3182 261.082 64.0933 263.733C61.5481 262.591 58.7899 262 56 262C53.2101 262 50.4519 262.591 47.9067 263.733C47.7209 261.676 46.9407 259.718 45.6611 258.097C44.3816 256.476 42.6581 255.262 40.7006 254.604C38.7432 253.945 36.6365 253.87 34.6373 254.388C32.6381 254.906 30.8328 255.995 29.4416 257.521C28.0504 259.048 27.1333 260.946 26.8022 262.984C26.471 265.023 26.7402 267.114 27.5767 269.002C28.4133 270.89 29.7812 272.494 31.5136 273.618C33.246 274.743 35.2681 275.338 37.3333 275.333C37.5173 275.333 37.688 275.288 37.8667 275.28C37.5182 276.603 37.339 277.965 37.3333 279.333C37.3333 299.333 50.6667 306 56 306C61.3333 306 74.6667 299.333 74.6667 279.333C74.661 277.965 74.4817 276.603 74.1333 275.28C74.312 275.28 74.4827 275.333 74.6667 275.333C77.4956 275.333 80.2087 274.21 82.2091 272.209C84.2095 270.209 85.3333 267.496 85.3333 264.667C85.3333 261.838 84.2095 259.125 82.2091 257.124C80.2087 255.124 77.4956 254 74.6667 254Z" stroke="white" stroke-linecap="round" stroke-linejoin="round"/>
<path d="M83.8933 259.333C74.56 255.333 69.3333 262 69.3333 267.333" stroke="white" stroke-linecap="round" stroke-linejoin="round"/>
<path d="M42.6666 267.333C42.6666 262 37.4213 255.333 28.088 259.333" stroke="white" stroke-linecap="round" stroke-linejoin="round"/>
<path d="M47.3333 280.667C46.9378 280.667 46.5511 280.784 46.2222 281.004C45.8933 281.223 45.637 281.536 45.4856 281.901C45.3342 282.267 45.2946 282.669 45.3718 283.057C45.4489 283.445 45.6394 283.801 45.9191 284.081C46.1988 284.361 46.5552 284.551 46.9432 284.628C47.3311 284.705 47.7333 284.666 48.0987 284.514C48.4642 284.363 48.7765 284.107 48.9963 283.778C49.216 283.449 49.3333 283.062 49.3333 282.667C49.3333 282.136 49.1226 281.628 48.7476 281.252C48.3725 280.877 47.8638 280.667 47.3333 280.667Z" stroke="white" stroke-linecap="round" stroke-linejoin="round"/>
<path d="M64.6667 280.667C64.2711 280.667 63.8844 280.784 63.5555 281.004C63.2266 281.223 62.9703 281.536 62.8189 281.901C62.6675 282.267 62.6279 282.669 62.7051 283.057C62.7823 283.445 62.9727 283.801 63.2524 284.081C63.5321 284.361 63.8885 284.551 64.2765 284.628C64.6644 284.705 65.0666 284.666 65.432 284.514C65.7975 284.363 66.1098 284.107 66.3296 283.778C66.5494 283.449 66.6667 283.062 66.6667 282.667C66.6667 282.136 66.4559 281.628 66.0809 281.252C65.7058 280.877 65.1971 280.667 64.6667 280.667Z" stroke="white" stroke-linecap="round" stroke-linejoin="round"/>
<path d="M68 290C68 290 74.6667 290 77.3333 292.667" stroke="white" stroke-linecap="round" stroke-linejoin="round"/>
<path d="M65.3333 295.333C68.2264 296.765 70.5688 299.107 72 302" stroke="white" stroke-linecap="round" stroke-linejoin="round"/>
<path d="M44 290C44 290 37.3333 290 34.6667 292.667" stroke="white" stroke-linecap="round" stroke-linejoin="round"/>
<path d="M46.6667 295.333C43.7736 296.765 41.4312 299.107 40 302" stroke="white" stroke-linecap="round" stroke-linejoin="round"/>
<path d="M60 302C59.9368 303.04 59.4951 304.021 58.7582 304.758C58.0213 305.495 57.0402 305.937 56 306C54.9598 305.937 53.9787 305.495 53.2418 304.758C52.5049 304.021 52.0632 303.04 52 302C52 300.16 53.792 299.333 56 299.333C58.208 299.333 60 300.16 60 302Z" stroke="white" stroke-linecap="round" stroke-linejoin="round"/>
</g>
<g style="mix-blend-mode:overlay">
<path d="M306.24 262.827C305.886 260.556 304.822 258.455 303.2 256.827V256.827C301.571 255.205 299.471 254.141 297.2 253.787C292.501 253.077 287.709 253.295 283.093 254.427C282.911 254.464 282.733 254.518 282.56 254.587C275.806 256.289 269.641 259.791 264.72 264.72C259.771 269.676 256.252 275.877 254.533 282.667C254.533 282.827 254.533 282.987 254.4 283.173C253.268 287.798 253.05 292.599 253.76 297.307C254.141 299.53 255.203 301.58 256.8 303.173C258.429 304.795 260.529 305.859 262.8 306.213C264.634 306.511 266.489 306.663 268.347 306.667C271.278 306.65 274.196 306.283 277.04 305.573H277.413C284.176 303.861 290.351 300.357 295.288 295.429C300.225 290.501 303.742 284.332 305.467 277.573C305.467 277.413 305.467 277.253 305.6 277.067C306.746 272.408 306.964 267.569 306.24 262.827V262.827ZM291.653 258.667C293.226 258.658 294.796 258.783 296.347 259.04C296.564 259.086 296.778 259.149 296.987 259.227L293.333 262.907L289.227 258.8C290.027 258.667 290.853 258.667 291.653 258.667ZM268.453 268.453C272.468 264.46 277.419 261.536 282.853 259.947L289.573 266.667L283.84 272.4L281.893 270.453C281.645 270.203 281.351 270.005 281.026 269.87C280.701 269.734 280.352 269.665 280 269.665C279.648 269.665 279.299 269.734 278.974 269.87C278.65 270.005 278.355 270.203 278.107 270.453C277.61 270.953 277.331 271.629 277.331 272.333C277.331 273.038 277.61 273.714 278.107 274.213L280.053 276.16L276.16 280L274.213 278.053C273.714 277.557 273.038 277.278 272.333 277.278C271.629 277.278 270.953 277.557 270.453 278.053C270.203 278.301 270.005 278.596 269.87 278.921C269.734 279.246 269.665 279.595 269.665 279.947C269.665 280.299 269.734 280.647 269.87 280.972C270.005 281.297 270.203 281.592 270.453 281.84L272.4 283.787L266.667 289.573L259.973 282.88C261.546 277.436 264.462 272.475 268.453 268.453V268.453ZM259.227 296.987C259.149 296.778 259.086 296.564 259.04 296.347C258.636 293.996 258.511 291.606 258.667 289.227L262.907 293.333L259.227 296.987ZM263.653 300.96C263.436 300.914 263.222 300.851 263.013 300.773L266.667 297.093L270.773 301.333C268.394 301.489 266.004 301.364 263.653 300.96V300.96ZM291.547 291.547C287.525 295.538 282.564 298.454 277.12 300.027L270.427 293.333L276.16 287.6L278.107 289.547C278.354 289.795 278.647 289.993 278.97 290.128C279.293 290.263 279.64 290.334 279.991 290.335C280.341 290.336 280.688 290.268 281.012 290.135C281.337 290.002 281.631 289.807 281.88 289.56C282.129 289.313 282.326 289.02 282.461 288.696C282.597 288.373 282.667 288.026 282.668 287.676C282.669 287.326 282.602 286.979 282.469 286.654C282.336 286.33 282.14 286.035 281.893 285.787L280 283.84L283.84 280L285.787 281.947C286.036 282.194 286.331 282.389 286.656 282.522C286.981 282.655 287.329 282.722 287.68 282.72C288.207 282.718 288.722 282.559 289.16 282.264C289.597 281.97 289.937 281.552 290.137 281.064C290.337 280.576 290.387 280.039 290.282 279.522C290.177 279.005 289.921 278.531 289.547 278.16L287.6 276.213L293.333 270.427L300.027 277.12C298.454 282.564 295.538 287.525 291.547 291.547V291.547ZM301.333 270.773L297.093 266.667L300.773 263.013C300.851 263.222 300.914 263.436 300.96 263.653C301.364 266.004 301.489 268.394 301.333 270.773Z" fill="white"/>
</g>
</svg>
