<svg width="1440" height="1024" viewBox="0 0 1440 1024" fill="none" xmlns="http://www.w3.org/2000/svg">
<g clip-path="url(#clip0)">
<path d="M0 0H1440V1024H0V0Z" fill="#541B9D"/>
<path d="M0 0H1440V1024H0V0Z" fill="url(#paint0_linear)"/>
<g filter="url(#filter0_f)">
<path fill-rule="evenodd" clip-rule="evenodd" d="M984.259 38.7469C958.248 12.7361 916.076 12.7361 890.066 38.747C864.055 64.7578 864.055 106.93 890.066 132.94L894.963 137.838C916.223 163.997 914.674 202.525 890.317 226.882C864.306 252.893 822.135 252.893 796.124 226.882C770.113 200.871 727.941 200.871 701.93 226.882C675.92 252.893 675.92 295.065 701.93 321.076L706.828 325.973C728.088 352.132 726.539 390.661 702.182 415.018C676.171 441.028 633.999 441.028 607.988 415.018C581.978 389.007 539.806 389.007 513.795 415.018C487.784 441.028 487.784 483.2 513.795 509.211L518.692 514.108C539.952 540.267 538.404 578.796 514.047 603.153C488.036 629.164 445.864 629.164 419.853 603.153C393.842 577.142 351.671 577.142 325.66 603.153C299.649 629.164 299.649 671.336 325.66 697.346L330.557 702.243C351.817 728.402 350.269 766.931 325.911 791.288C299.901 817.299 257.729 817.299 231.718 791.288C205.707 765.277 163.535 765.277 137.524 791.288C111.514 817.299 111.514 859.471 137.525 885.482L142.423 890.38C163.682 916.539 162.134 955.067 137.777 979.424C111.766 1005.43 69.5941 1005.43 43.5833 979.424C17.5725 953.413 -24.5993 953.413 -50.6101 979.424C-76.6209 1005.43 -76.6209 1047.61 -50.6101 1073.62L-50.6101 1073.62L45.4394 1169.67L45.4394 1169.67L416.898 1541.13L1734.35 223.675L1354.05 -156.62L1353.8 -156.368L1266.63 -243.536C1292.6 -217.522 1292.58 -175.384 1266.59 -149.388C1240.58 -123.377 1198.41 -123.377 1172.39 -149.388C1146.38 -175.399 1104.21 -175.399 1078.2 -149.388C1052.19 -123.377 1052.19 -81.2056 1078.2 -55.1947L1083.1 -50.2967C1104.36 -24.1377 1102.81 14.3901 1078.45 38.7469C1052.44 64.7578 1010.27 64.7577 984.259 38.7469Z" fill="url(#paint1_linear)"/>
</g>
<g filter="url(#filter1_f)">
<path fill-rule="evenodd" clip-rule="evenodd" d="M1399.39 382.814C1373.37 356.818 1331.19 356.843 1305.2 382.869C1279.2 408.895 1279.23 451.067 1305.25 477.062L1310.15 481.957C1331.43 508.104 1329.9 546.633 1305.56 571.004C1279.56 597.03 1237.39 597.055 1211.37 571.059C1185.34 545.063 1143.17 545.088 1117.17 571.114C1091.18 597.14 1091.2 639.312 1117.23 665.307L1122.13 670.201C1143.4 696.348 1141.88 734.877 1117.53 759.249C1091.54 785.275 1049.37 785.299 1023.34 759.304C997.314 733.308 955.142 733.333 929.146 759.359C903.151 785.385 903.175 827.556 929.201 853.552L934.101 858.446C955.377 884.593 953.851 923.122 929.508 947.494C903.512 973.52 861.34 973.544 835.314 947.549C809.288 921.553 767.116 921.578 741.121 947.603C715.125 973.629 715.15 1015.8 741.176 1041.8L746.075 1046.69C767.351 1072.84 765.825 1111.37 741.482 1135.74C715.486 1161.76 673.314 1161.79 647.288 1135.79C621.262 1109.8 579.091 1109.82 553.095 1135.85C527.099 1161.87 527.124 1204.05 553.15 1230.04L558.051 1234.94C579.326 1261.08 577.799 1299.61 553.457 1323.98C527.461 1350.01 485.289 1350.03 459.263 1324.04C433.237 1298.04 391.066 1298.07 365.07 1324.09C339.074 1350.12 339.099 1392.29 365.125 1418.29L365.125 1418.29L461.23 1514.28L461.23 1514.28L832.905 1885.52L2149.59 567.306L1769.07 187.232L1768.82 187.484L1681.6 100.367C1707.58 126.366 1707.59 168.504 1681.61 194.515C1655.61 220.541 1613.44 220.565 1587.42 194.569C1561.39 168.574 1519.22 168.598 1493.22 194.624C1467.23 220.65 1467.25 262.822 1493.28 288.818L1498.18 293.713C1519.45 319.86 1517.93 358.388 1493.58 382.759C1467.59 408.785 1425.42 408.81 1399.39 382.814Z" fill="url(#paint2_linear)"/>
</g>
<ellipse cx="283.039" cy="296" rx="4.22346" ry="4.23134" fill="#FFEC43"/>
<path d="M283.078 275L284.535 292.631H281.622L283.078 275Z" fill="#FFEC43"/>
<path d="M283 317L281.544 299.369L284.456 299.369L283 317Z" fill="#FFEC43"/>
<path d="M262 295.961L279.598 294.502L279.598 297.42L262 295.961Z" fill="#FFEC43"/>
<path d="M304 295.961L286.402 297.42L286.402 294.502L304 295.961Z" fill="#FFEC43"/>
<ellipse cx="481.039" cy="221" rx="4.22346" ry="4.23134" fill="#FFEC43"/>
<path d="M481.078 200L482.535 217.631H479.622L481.078 200Z" fill="#FFEC43"/>
<path d="M481 242L479.544 224.369L482.456 224.369L481 242Z" fill="#FFEC43"/>
<path d="M460 220.961L477.598 219.502L477.598 222.42L460 220.961Z" fill="#FFEC43"/>
<path d="M502 220.961L484.402 222.42L484.402 219.502L502 220.961Z" fill="#FFEC43"/>
<ellipse cx="952.039" cy="380" rx="4.22346" ry="4.23134" fill="#FFEC43"/>
<path d="M952.078 359L953.535 376.631H950.622L952.078 359Z" fill="#FFEC43"/>
<path d="M952 401L950.544 383.369L953.456 383.369L952 401Z" fill="#FFEC43"/>
<path d="M931 379.961L948.598 378.502L948.598 381.42L931 379.961Z" fill="#FFEC43"/>
<path d="M973 379.961L955.402 381.42L955.402 378.502L973 379.961Z" fill="#FFEC43"/>
<ellipse cx="146.039" cy="897" rx="4.22346" ry="4.23134" fill="#FFEC43"/>
<path d="M146.078 876L147.535 893.631H144.622L146.078 876Z" fill="#FFEC43"/>
<path d="M146 918L144.544 900.369L147.456 900.369L146 918Z" fill="#FFEC43"/>
<path d="M125 896.961L142.598 895.502L142.598 898.42L125 896.961Z" fill="#FFEC43"/>
<path d="M167 896.961L149.402 898.42L149.402 895.502L167 896.961Z" fill="#FFEC43"/>
<ellipse cx="1347.04" cy="861" rx="4.22346" ry="4.23134" fill="#FFEC43"/>
<path d="M1347.08 840L1348.53 857.631H1345.62L1347.08 840Z" fill="#FFEC43"/>
<path d="M1347 882L1345.54 864.369L1348.46 864.369L1347 882Z" fill="#FFEC43"/>
<path d="M1326 860.961L1343.6 859.502L1343.6 862.42L1326 860.961Z" fill="#FFEC43"/>
<path d="M1368 860.961L1350.4 862.42L1350.4 859.502L1368 860.961Z" fill="#FFEC43"/>
<ellipse cx="1056.04" cy="950" rx="4.22346" ry="4.23134" fill="#FFEC43"/>
<path d="M1056.08 929L1057.53 946.631H1054.62L1056.08 929Z" fill="#FFEC43"/>
<path d="M1056 971L1054.54 953.369L1057.46 953.369L1056 971Z" fill="#FFEC43"/>
<path d="M1035 949.961L1052.6 948.502L1052.6 951.42L1035 949.961Z" fill="#FFEC43"/>
<path d="M1077 949.961L1059.4 951.42L1059.4 948.502L1077 949.961Z" fill="#FFEC43"/>
<ellipse cx="982.039" cy="732" rx="4.22346" ry="4.23134" fill="#FFEC43"/>
<path d="M982.078 711L983.535 728.631H980.622L982.078 711Z" fill="#FFEC43"/>
<path d="M982 753L980.544 735.369L983.456 735.369L982 753Z" fill="#FFEC43"/>
<path d="M961 731.961L978.598 730.502L978.598 733.42L961 731.961Z" fill="#FFEC43"/>
<path d="M1003 731.961L985.402 733.42L985.402 730.502L1003 731.961Z" fill="#FFEC43"/>
<ellipse cx="439.039" cy="641" rx="4.22346" ry="4.23134" fill="#FFEC43"/>
<path d="M439.078 620L440.535 637.631H437.622L439.078 620Z" fill="#FFEC43"/>
<path d="M439 662L437.544 644.369L440.456 644.369L439 662Z" fill="#FFEC43"/>
<path d="M418 640.961L435.598 639.502L435.598 642.42L418 640.961Z" fill="#FFEC43"/>
<path d="M460 640.961L442.402 642.42L442.402 639.502L460 640.961Z" fill="#FFEC43"/>
<ellipse cx="651.039" cy="455" rx="4.22346" ry="4.23134" fill="#FFEC43"/>
<path d="M651.078 434L652.535 451.631H649.622L651.078 434Z" fill="#FFEC43"/>
<path d="M651 476L649.544 458.369L652.456 458.369L651 476Z" fill="#FFEC43"/>
<path d="M630 454.961L647.598 453.502L647.598 456.42L630 454.961Z" fill="#FFEC43"/>
<path d="M672 454.961L654.402 456.42L654.402 453.502L672 454.961Z" fill="#FFEC43"/>
<ellipse cx="667.514" cy="684.5" rx="1.50838" ry="1.51119" fill="#FFEC43"/>
<path d="M667.528 677L668.048 683.297H667.008L667.528 677Z" fill="#FFEC43"/>
<path d="M667.5 692L666.98 685.703L668.02 685.703L667.5 692Z" fill="#FFEC43"/>
<path d="M660 684.486L666.285 683.965L666.285 685.007L660 684.486Z" fill="#FFEC43"/>
<path d="M675 684.486L668.715 685.007L668.715 683.965L675 684.486Z" fill="#FFEC43"/>
<ellipse cx="783.514" cy="279.5" rx="1.50838" ry="1.51119" fill="#FFEC43"/>
<path d="M783.528 272L784.048 278.297H783.008L783.528 272Z" fill="#FFEC43"/>
<path d="M783.5 287L782.98 280.703L784.02 280.703L783.5 287Z" fill="#FFEC43"/>
<path d="M776 279.486L782.285 278.965L782.285 280.007L776 279.486Z" fill="#FFEC43"/>
<path d="M791 279.486L784.715 280.007L784.715 278.965L791 279.486Z" fill="#FFEC43"/>
<ellipse cx="217.514" cy="111.5" rx="1.50838" ry="1.51119" fill="#FFEC43"/>
<path d="M217.528 104L218.048 110.297H217.008L217.528 104Z" fill="#FFEC43"/>
<path d="M217.5 119L216.98 112.703L218.02 112.703L217.5 119Z" fill="#FFEC43"/>
<path d="M210 111.486L216.285 110.965L216.285 112.007L210 111.486Z" fill="#FFEC43"/>
<path d="M225 111.486L218.715 112.007L218.715 110.965L225 111.486Z" fill="#FFEC43"/>
<ellipse cx="216.514" cy="539.5" rx="1.50838" ry="1.51119" fill="#FFEC43"/>
<path d="M216.528 532L217.048 538.297H216.008L216.528 532Z" fill="#FFEC43"/>
<path d="M216.5 547L215.98 540.703L217.02 540.703L216.5 547Z" fill="#FFEC43"/>
<path d="M209 539.486L215.285 538.965L215.285 540.007L209 539.486Z" fill="#FFEC43"/>
<path d="M224 539.486L217.715 540.007L217.715 538.965L224 539.486Z" fill="#FFEC43"/>
<ellipse cx="215.514" cy="967.5" rx="1.50838" ry="1.51119" fill="#FFEC43"/>
<path d="M215.528 960L216.048 966.297H215.008L215.528 960Z" fill="#FFEC43"/>
<path d="M215.5 975L214.98 968.703L216.02 968.703L215.5 975Z" fill="#FFEC43"/>
<path d="M208 967.486L214.285 966.965L214.285 968.007L208 967.486Z" fill="#FFEC43"/>
<path d="M223 967.486L216.715 968.007L216.715 966.965L223 967.486Z" fill="#FFEC43"/>
<ellipse cx="200.514" cy="722.5" rx="1.50838" ry="1.51119" fill="#FFEC43"/>
<path d="M200.528 715L201.048 721.297H200.008L200.528 715Z" fill="#FFEC43"/>
<path d="M200.5 730L199.98 723.703L201.02 723.703L200.5 730Z" fill="#FFEC43"/>
<path d="M193 722.486L199.285 721.965L199.285 723.007L193 722.486Z" fill="#FFEC43"/>
<path d="M208 722.486L201.715 723.007L201.715 721.965L208 722.486Z" fill="#FFEC43"/>
<ellipse cx="490.514" cy="812.5" rx="1.50838" ry="1.51119" fill="#FFEC43"/>
<path d="M490.528 805L491.048 811.297H490.008L490.528 805Z" fill="#FFEC43"/>
<path d="M490.5 820L489.98 813.703L491.02 813.703L490.5 820Z" fill="#FFEC43"/>
<path d="M483 812.486L489.285 811.965L489.285 813.007L483 812.486Z" fill="#FFEC43"/>
<path d="M498 812.486L491.715 813.007L491.715 811.965L498 812.486Z" fill="#FFEC43"/>
<ellipse cx="833.514" cy="811.5" rx="1.50838" ry="1.51119" fill="#FFEC43"/>
<path d="M833.528 804L834.048 810.297H833.008L833.528 804Z" fill="#FFEC43"/>
<path d="M833.5 819L832.98 812.703L834.02 812.703L833.5 819Z" fill="#FFEC43"/>
<path d="M826 811.486L832.285 810.965L832.285 812.007L826 811.486Z" fill="#FFEC43"/>
<path d="M841 811.486L834.715 812.007L834.715 810.965L841 811.486Z" fill="#FFEC43"/>
<ellipse cx="976.514" cy="537.5" rx="1.50838" ry="1.51119" fill="#FFEC43"/>
<path d="M976.528 530L977.048 536.297H976.008L976.528 530Z" fill="#FFEC43"/>
<path d="M976.5 545L975.98 538.703L977.02 538.703L976.5 545Z" fill="#FFEC43"/>
<path d="M969 537.486L975.285 536.965L975.285 538.007L969 537.486Z" fill="#FFEC43"/>
<path d="M984 537.486L977.715 538.007L977.715 536.965L984 537.486Z" fill="#FFEC43"/>
<ellipse cx="1283.51" cy="421.5" rx="1.50838" ry="1.51119" fill="#FFEC43"/>
<path d="M1283.53 414L1284.05 420.297H1283.01L1283.53 414Z" fill="#FFEC43"/>
<path d="M1283.5 429L1282.98 422.703L1284.02 422.703L1283.5 429Z" fill="#FFEC43"/>
<path d="M1276 421.486L1282.28 420.965L1282.28 422.007L1276 421.486Z" fill="#FFEC43"/>
<path d="M1291 421.486L1284.72 422.007L1284.72 420.965L1291 421.486Z" fill="#FFEC43"/>
<ellipse cx="155.514" cy="415.5" rx="1.50838" ry="1.51119" fill="#FFEC43"/>
<path d="M155.528 408L156.048 414.297H155.008L155.528 408Z" fill="#FFEC43"/>
<path d="M155.5 423L154.98 416.703L156.02 416.703L155.5 423Z" fill="#FFEC43"/>
<path d="M148 415.486L154.285 414.965L154.285 416.007L148 415.486Z" fill="#FFEC43"/>
<path d="M163 415.486L156.715 416.007L156.715 414.965L163 415.486Z" fill="#FFEC43"/>
<ellipse cx="452.514" cy="128.5" rx="1.50838" ry="1.51119" fill="#FFEC43"/>
<path d="M452.528 121L453.048 127.297H452.008L452.528 121Z" fill="#FFEC43"/>
<path d="M452.5 136L451.98 129.703L453.02 129.703L452.5 136Z" fill="#FFEC43"/>
<path d="M445 128.486L451.285 127.965L451.285 129.007L445 128.486Z" fill="#FFEC43"/>
<path d="M460 128.486L453.715 129.007L453.715 127.965L460 128.486Z" fill="#FFEC43"/>
<ellipse cx="425.514" cy="445.5" rx="1.50838" ry="1.51119" fill="#FFEC43"/>
<path d="M425.528 438L426.048 444.297H425.008L425.528 438Z" fill="#FFEC43"/>
<path d="M425.5 453L424.98 446.703L426.02 446.703L425.5 453Z" fill="#FFEC43"/>
<path d="M418 445.486L424.285 444.965L424.285 446.007L418 445.486Z" fill="#FFEC43"/>
<path d="M433 445.486L426.715 446.007L426.715 444.965L433 445.486Z" fill="#FFEC43"/>
<ellipse cx="643.514" cy="844.5" rx="1.50838" ry="1.51119" fill="#FFEC43"/>
<path d="M643.528 837L644.048 843.297H643.008L643.528 837Z" fill="#FFEC43"/>
<path d="M643.5 852L642.98 845.703L644.02 845.703L643.5 852Z" fill="#FFEC43"/>
<path d="M636 844.486L642.285 843.965L642.285 845.007L636 844.486Z" fill="#FFEC43"/>
<path d="M651 844.486L644.715 845.007L644.715 843.965L651 844.486Z" fill="#FFEC43"/>
<ellipse cx="703.514" cy="579.5" rx="1.50838" ry="1.51119" fill="#FFEC43"/>
<path d="M703.528 572L704.048 578.297H703.008L703.528 572Z" fill="#FFEC43"/>
<path d="M703.5 587L702.98 580.703L704.02 580.703L703.5 587Z" fill="#FFEC43"/>
<path d="M696 579.486L702.285 578.965L702.285 580.007L696 579.486Z" fill="#FFEC43"/>
<path d="M711 579.486L704.715 580.007L704.715 578.965L711 579.486Z" fill="#FFEC43"/>
<ellipse cx="825.514" cy="482.5" rx="1.50838" ry="1.51119" fill="#FFEC43"/>
<path d="M825.528 475L826.048 481.297H825.008L825.528 475Z" fill="#FFEC43"/>
<path d="M825.5 490L824.98 483.703L826.02 483.703L825.5 490Z" fill="#FFEC43"/>
<path d="M818 482.486L824.285 481.965L824.285 483.007L818 482.486Z" fill="#FFEC43"/>
<path d="M833 482.486L826.715 483.007L826.715 481.965L833 482.486Z" fill="#FFEC43"/>
<ellipse cx="1200.51" cy="594.5" rx="1.50838" ry="1.51119" fill="#FFEC43"/>
<path d="M1200.53 587L1201.05 593.297H1200.01L1200.53 587Z" fill="#FFEC43"/>
<path d="M1200.5 602L1199.98 595.703L1201.02 595.703L1200.5 602Z" fill="#FFEC43"/>
<path d="M1193 594.486L1199.28 593.965L1199.28 595.007L1193 594.486Z" fill="#FFEC43"/>
<path d="M1208 594.486L1201.72 595.007L1201.72 593.965L1208 594.486Z" fill="#FFEC43"/>
<ellipse cx="707.514" cy="119.5" rx="1.50838" ry="1.51119" fill="#FFEC43"/>
<path d="M707.528 112L708.048 118.297H707.008L707.528 112Z" fill="#FFEC43"/>
<path d="M707.5 127L706.98 120.703L708.02 120.703L707.5 127Z" fill="#FFEC43"/>
<path d="M700 119.486L706.285 118.965L706.285 120.007L700 119.486Z" fill="#FFEC43"/>
<path d="M715 119.486L708.715 120.007L708.715 118.965L715 119.486Z" fill="#FFEC43"/>
<ellipse cx="1191.51" cy="191.5" rx="1.50838" ry="1.51119" fill="#FFEC43"/>
<path d="M1191.53 184L1192.05 190.297H1191.01L1191.53 184Z" fill="#FFEC43"/>
<path d="M1191.5 199L1190.98 192.703L1192.02 192.703L1191.5 199Z" fill="#FFEC43"/>
<path d="M1184 191.486L1190.28 190.965L1190.28 192.007L1184 191.486Z" fill="#FFEC43"/>
<path d="M1199 191.486L1192.72 192.007L1192.72 190.965L1199 191.486Z" fill="#FFEC43"/>
<ellipse cx="935.039" cy="179" rx="4.22346" ry="4.23134" fill="#FFEC43"/>
<path d="M935.078 158L936.535 175.631H933.622L935.078 158Z" fill="#FFEC43"/>
<path d="M935 200L933.544 182.369L936.456 182.369L935 200Z" fill="#FFEC43"/>
<path d="M914 178.961L931.598 177.502L931.598 180.42L914 178.961Z" fill="#FFEC43"/>
<path d="M956 178.961L938.402 180.42L938.402 177.502L956 178.961Z" fill="#FFEC43"/>
<ellipse cx="1286.04" cy="251" rx="4.22346" ry="4.23134" fill="#FFEC43"/>
<path d="M1286.08 230L1287.53 247.631H1284.62L1286.08 230Z" fill="#FFEC43"/>
<path d="M1286 272L1284.54 254.369L1287.46 254.369L1286 272Z" fill="#FFEC43"/>
<path d="M1265 250.961L1282.6 249.502L1282.6 252.42L1265 250.961Z" fill="#FFEC43"/>
<path d="M1307 250.961L1289.4 252.42L1289.4 249.502L1307 250.961Z" fill="#FFEC43"/>
</g>
<defs>
<filter id="filter0_f" x="-98.7075" y="-291.93" width="1834.06" height="1834.06" filterUnits="userSpaceOnUse" color-interpolation-filters="sRGB">
<feFlood flood-opacity="0" result="BackgroundImageFix"/>
<feBlend mode="normal" in="SourceGraphic" in2="BackgroundImageFix" result="shape"/>
<feGaussianBlur stdDeviation="0.5" result="effect1_foregroundBlur"/>
</filter>
<filter id="filter1_f" x="317" y="52" width="1833.59" height="1834.52" filterUnits="userSpaceOnUse" color-interpolation-filters="sRGB">
<feFlood flood-opacity="0" result="BackgroundImageFix"/>
<feBlend mode="normal" in="SourceGraphic" in2="BackgroundImageFix" result="shape"/>
<feGaussianBlur stdDeviation="0.5" result="effect1_foregroundBlur"/>
</filter>
<linearGradient id="paint0_linear" x1="0" y1="0" x2="1440" y2="1024" gradientUnits="userSpaceOnUse">
<stop stop-color="#541B9D"/>
<stop offset="1" stop-color="#200435"/>
</linearGradient>
<linearGradient id="paint1_linear" x1="561.018" y1="367.795" x2="1075.62" y2="882.4" gradientUnits="userSpaceOnUse">
<stop stop-color="#0B37A9"/>
<stop offset="1" stop-color="#7706D0"/>
</linearGradient>
<linearGradient id="paint2_linear" x1="976.341" y1="712.109" x2="1491.25" y2="1226.41" gradientUnits="userSpaceOnUse">
<stop stop-color="#3E0883"/>
<stop offset="1" stop-color="#530068"/>
</linearGradient>
<clipPath id="clip0">
<path d="M0 0H1440V1024H0V0Z" fill="white"/>
</clipPath>
</defs>
</svg>
