<?xml version="1.0" encoding="iso-8859-1"?>
<!-- Generator: Adobe Illustrator 21.0.0, SVG Export Plug-In . SVG Version: 6.00 Build 0)  -->
<svg version="1.1" id="drink-beverage-alcohol-wine"
	 xmlns="http://www.w3.org/2000/svg" xmlns:xlink="http://www.w3.org/1999/xlink" x="0px" y="0px" viewBox="0 0 64 64"
	 style="enable-background:new 0 0 64 64;" xml:space="preserve" fill="#ffffff">
<path d="M59.882,28.029C57.342,23.268,56,17.897,56,12.5V5V1c0-0.552-0.448-1-1-1h-6c-0.552,0-1,0.448-1,1v4v7.5
	c0,5.397-1.342,10.768-3.882,15.529c-2.416,4.529-3.801,9.577-4.063,14.699C40.029,42.816,40,42.904,40,43v1.5V59v4
	c0,0.552,0.448,1,1,1h22c0.552,0,1-0.448,1-1V44.5C64,38.775,62.576,33.08,59.882,28.029z M50,2h4v2h-4V2z M42,48h7v-2h-7v-1.5
	c0-0.167,0.013-0.333,0.016-0.5H54v14H42V48z M62,62H42v-2h13c0.552,0,1-0.448,1-1V43c0-0.552-0.448-1-1-1H42.107
	c0.348-4.543,1.628-9.004,3.775-13.029C48.576,23.92,50,18.225,50,12.5V6h4v6.5c0,5.725,1.424,11.42,4.118,16.471
	C60.658,33.732,62,39.103,62,44.5V62z"/>
<path d="M33,20H23c-0.552,0-1,0.448-1,1v19c0,2.967,2.167,5.431,5,5.91V62h-4v2h10v-2h-4V45.91c2.833-0.478,5-2.942,5-5.91V21
	C34,20.448,33.552,20,33,20z M32,40c0,2.206-1.794,4-4,4s-4-1.794-4-4v-9.093c2.923-0.332,5.631-1.624,7.743-3.736L32,26.914V40z
	 M32,24.5l-0.207-0.207l-1.464,1.464c-1.733,1.732-3.941,2.808-6.329,3.13V22h8V24.5z"/>
<rect x="5" width="2" height="4"/>
<rect x="5" y="8" width="2" height="4"/>
<rect x="8" y="5" width="4" height="2"/>
<rect y="5" width="4" height="2"/>
<path d="M15,11c-1.654,0-3,1.346-3,3s1.346,3,3,3s3-1.346,3-3S16.654,11,15,11z M15,15c-0.551,0-1-0.449-1-1s0.449-1,1-1
	s1,0.449,1,1S15.551,15,15,15z"/>
<path d="M32,0c-2.757,0-5,2.243-5,5s2.243,5,5,5s5-2.243,5-5S34.757,0,32,0z M32,8c-1.654,0-3-1.346-3-3s1.346-3,3-3s3,1.346,3,3
	S33.654,8,32,8z"/>
<path d="M27,18c1.654,0,3-1.346,3-3s-1.346-3-3-3s-3,1.346-3,3S25.346,18,27,18z M27,14c0.551,0,1,0.449,1,1s-0.449,1-1,1
	s-1-0.449-1-1S26.449,14,27,14z"/>
<path d="M16,20H6c-0.552,0-1,0.448-1,1v14v5c0,3.309,2.691,6,6,6v16H7v2h10v-2h-4V45.65c2.327-0.826,4-3.043,4-5.65V30v-9
	C17,20.448,16.552,20,16,20z M15,40c0,2.206-1.794,4-4,4s-4-1.794-4-4v-4.027c0.112-0.006,0.211-0.023,0.32-0.031
	c0.203-0.015,0.4-0.036,0.594-0.058c0.274-0.032,0.541-0.07,0.798-0.115c0.181-0.032,0.361-0.065,0.535-0.103
	c0.251-0.055,0.492-0.12,0.729-0.189c0.158-0.046,0.318-0.09,0.47-0.141c0.24-0.081,0.468-0.174,0.694-0.269
	c0.13-0.055,0.265-0.105,0.391-0.164c0.258-0.121,0.503-0.256,0.745-0.394c0.08-0.046,0.167-0.086,0.245-0.134
	c0.316-0.192,0.62-0.398,0.915-0.618c0.08-0.06,0.156-0.127,0.235-0.188c0.214-0.167,0.426-0.337,0.633-0.517
	c0.108-0.095,0.214-0.196,0.321-0.295c0.125-0.115,0.252-0.225,0.376-0.345V40z M15,29.586l-1.171,1.171
	c-0.238,0.238-0.477,0.464-0.718,0.68c-0.081,0.073-0.165,0.137-0.247,0.207c-0.163,0.139-0.326,0.277-0.493,0.405
	c-0.1,0.077-0.205,0.146-0.307,0.219c-0.156,0.11-0.312,0.22-0.473,0.32c-0.113,0.07-0.231,0.134-0.347,0.2
	c-0.16,0.09-0.323,0.178-0.491,0.259c-0.126,0.06-0.256,0.116-0.386,0.171c-0.172,0.073-0.348,0.141-0.53,0.204
	c-0.139,0.048-0.281,0.093-0.426,0.135c-0.189,0.055-0.386,0.104-0.586,0.149c-0.153,0.034-0.308,0.068-0.469,0.096
	c-0.213,0.038-0.438,0.066-0.665,0.093c-0.168,0.02-0.333,0.041-0.509,0.055C7.122,33.954,7.058,33.954,7,33.958V22h8V29.586z"/>
<rect x="47" y="55" width="2" height="2"/>
<rect x="51" y="55" width="2" height="2"/>
<rect x="47" y="51" width="2" height="2"/>
<rect x="51" y="51" width="2" height="2"/>
<rect x="25" y="39" width="2" height="2"/>
<rect x="29" y="39" width="2" height="2"/>
<rect x="25" y="35" width="2" height="2"/>
<rect x="29" y="35" width="2" height="2"/>
</svg>
